<?xml version="1.0" encoding="UTF-8"?>
<!DOCTYPE svg PUBLIC "-//W3C//DTD SVG 1.1//EN" "http://www.w3.org/Graphics/SVG/1.1/DTD/svg11.dtd">
<!-- Creator: CorelDRAW X7 -->
<svg xmlns="http://www.w3.org/2000/svg" xml:space="preserve" width="21.6746mm" height="21.6746mm" version="1.1" style="shape-rendering:geometricPrecision; text-rendering:geometricPrecision; image-rendering:optimizeQuality; fill-rule:evenodd; clip-rule:evenodd"
viewBox="0 0 2167 2167"
 xmlns:xlink="http://www.w3.org/1999/xlink">
 <defs>
  <style type="text/css">
   <![CDATA[
    .fil2 {fill:#332C2B}
    .fil0 {fill:#F9FBFB}
    .fil5 {fill:#2618C4}
    .fil3 {fill:#408C86}
    .fil6 {fill:#61C21B}
    .fil4 {fill:#AD2DF7}
    .fil1 {fill:#CC1420}
   ]]>
  </style>
 </defs>
 <g id="Layer_x0020_1">
  <metadata id="CorelCorpID_0Corel-Layer"/>
  <g id="_920878880">
   <rect class="fil0" width="2167" height="2167" rx="446" ry="446"/>
   <g>
    <path class="fil1" d="M1084 180c379,0 687,308 687,688 0,353 -264,643 -605,684l0 158c0,46 -37,83 -82,83 -46,0 -83,-37 -83,-83l0 -158 0 -108 0 -59c27,4 55,7 83,7 288,0 522,-235 522,-524 0,-289 -234,-523 -522,-523 -289,0 -523,234 -523,523l0 0c0,46 -36,83 -82,83 -45,0 -82,-37 -82,-83l0 0c0,-380 307,-688 687,-688z"/>
    <circle class="fil2" cx="1084" cy="1905" r="82"/>
    <path class="fil3" d="M1079 487c-87,1 -166,31 -229,81 -1,16 -7,33 -20,46 -13,13 -29,19 -46,20 -50,63 -79,143 -81,229 3,-103 87,-185 190,-185l1 0 0 0c0,-104 82,-188 185,-191z"/>
    <circle class="fil2" transform="matrix(0.108098 -0.108339 0.108098 0.108339 782.029 565.887)" r="394"/>
    <path class="fil4" d="M703 873c2,87 31,166 81,230 17,0 33,7 46,19 13,13 19,30 20,47 63,49 142,79 229,80 -103,-2 -185,-87 -185,-190l0 0 -1 0c-103,0 -187,-83 -190,-186z"/>
    <circle class="fil2" transform="matrix(-0.108098 -0.108339 0.108098 -0.108339 782.028 1170.45)" r="394"/>
    <path class="fil5" d="M1089 1249c86,-1 165,-31 229,-80 0,-17 7,-34 19,-46 13,-13 30,-20 47,-20 49,-64 79,-143 80,-230 -3,103 -87,186 -190,186l0 0 0 0c0,103 -83,188 -185,190z"/>
    <circle class="fil2" transform="matrix(-0.108098 0.108339 -0.108098 -0.108339 1385.37 1170.58)" r="394"/>
    <path class="fil6" d="M1464 863c-1,-86 -31,-166 -80,-229 -17,-1 -34,-8 -46,-20 -13,-13 -20,-30 -20,-47 -64,-49 -143,-79 -229,-80 102,3 185,87 185,190l0 0 0 0c103,0 187,83 190,186z"/>
    <circle class="fil2" transform="matrix(0.108098 0.108339 -0.108098 0.108339 1385.43 565.671)" r="394"/>
   </g>
  </g>
 </g>
</svg>
