<?xml version="1.0" encoding="UTF-8"?>
<!DOCTYPE svg PUBLIC "-//W3C//DTD SVG 1.1//EN" "http://www.w3.org/Graphics/SVG/1.1/DTD/svg11.dtd">
<!-- Creator: CorelDRAW X7 -->
<svg xmlns="http://www.w3.org/2000/svg" xml:space="preserve" width="43.3492mm" height="17.3566mm" version="1.1" style="shape-rendering:geometricPrecision; text-rendering:geometricPrecision; image-rendering:optimizeQuality; fill-rule:evenodd; clip-rule:evenodd"
viewBox="0 0 4335 1736"
 xmlns:xlink="http://www.w3.org/1999/xlink">
 <defs>
  <style type="text/css">
   <![CDATA[
    .fil2 {fill:#332C2B}
    .fil0 {fill:#FDFDFE}
    .fil5 {fill:#2618C4}
    .fil3 {fill:#408C86}
    .fil6 {fill:#61C21B}
    .fil4 {fill:#AD2DF7}
    .fil1 {fill:#CC1420}
    .fil11 {fill:#2618C4;fill-rule:nonzero}
    .fil8 {fill:#3531F7;fill-rule:nonzero}
    .fil10 {fill:#408C86;fill-rule:nonzero}
    .fil12 {fill:#61C21B;fill-rule:nonzero}
    .fil9 {fill:#AD2DF7;fill-rule:nonzero}
    .fil7 {fill:#CC1420;fill-rule:nonzero}
    .fil13 {fill:#FFD012;fill-rule:nonzero}
   ]]>
  </style>
 </defs>
 <g id="Layer_x0020_1">
  <metadata id="CorelCorpID_0Corel-Layer"/>
  <g id="_678966912">
   <rect class="fil0" x="1" width="4333" height="1736"/>
   <g>
    <path class="fil1" d="M1118 192c285,0 515,230 515,515 0,263 -198,480 -453,511l0 118c0,34 -28,62 -62,62 -34,0 -61,-28 -61,-62l0 -118 0 -80 0 -45c20,3 40,5 61,5 216,0 392,-175 392,-391 0,-217 -176,-392 -392,-392 -216,0 -391,175 -391,392l0 0c0,34 -28,61 -62,61 -34,0 -61,-27 -61,-61l0 0c0,-285 230,-515 514,-515z"/>
    <circle class="fil2" cx="1118" cy="1482" r="62"/>
    <path class="fil3" d="M1115 422c-65,1 -125,23 -172,60 0,13 -5,25 -15,35 -9,9 -22,14 -34,14 -37,48 -60,107 -61,172 2,-77 65,-139 143,-139l0 0 0 0c0,-77 62,-140 139,-142z"/>
    <circle class="fil2" transform="matrix(0.081001 -0.080999 0.081001 0.080999 892.256 480.668)" r="394"/>
    <path class="fil4" d="M833 710c1,65 24,124 61,172 12,0 25,5 34,15 10,9 15,22 15,34 47,37 107,60 172,61 -77,-2 -139,-65 -139,-143l0 0 0 0c-78,0 -141,-62 -143,-139z"/>
    <circle class="fil2" transform="matrix(-0.081001 -0.080999 0.081001 -0.080999 892.256 932.662)" r="394"/>
    <path class="fil5" d="M1122 992c65,-1 124,-24 172,-61 0,-12 5,-25 14,-34 10,-10 22,-15 35,-15 37,-47 59,-107 60,-172 -2,77 -65,139 -142,139l0 0 0 0c0,78 -62,141 -139,143z"/>
    <circle class="fil2" transform="matrix(-0.081001 0.080999 -0.081001 -0.080999 1344.36 932.762)" r="394"/>
    <path class="fil6" d="M1403 703c-1,-65 -23,-124 -60,-172 -12,0 -25,-5 -34,-15 -10,-9 -15,-22 -15,-34 -48,-37 -107,-60 -172,-60 77,2 139,65 139,142l0 0 0 0c77,0 140,62 142,139z"/>
    <circle class="fil2" transform="matrix(0.081001 0.080999 -0.081001 0.080999 1344.4 480.506)" r="394"/>
    <path class="fil7" d="M2350 676c0,12 -2,24 -6,37 -3,12 -9,24 -16,35 -8,12 -17,23 -27,33 -10,10 -22,19 -34,27 -13,8 -27,14 -41,19 -15,5 -30,8 -46,9 -3,0 -6,0 -9,0 -3,-1 -6,-2 -8,-2 -2,-1 -4,-2 -7,-3 -3,-1 -5,-2 -6,-3 -1,-1 -3,-3 -5,-6 -3,-2 -4,-5 -5,-6 -1,-1 -1,-3 -1,-6 0,-2 0,-5 0,-8 0,-3 0,-6 0,-10 0,-3 0,-5 1,-5 0,-1 1,0 3,1 1,1 4,2 9,3 2,0 4,0 7,0 2,0 5,0 7,-1 7,-1 16,-3 26,-6 10,-4 20,-9 30,-15 10,-6 20,-13 30,-21 10,-7 19,-16 27,-25 8,-9 14,-19 19,-29 5,-10 7,-21 7,-31 0,-8 -2,-16 -5,-24 -3,-7 -8,-15 -15,-22 -4,-5 -12,-9 -25,-12 -12,-2 -27,-4 -44,-4 -15,0 -30,1 -47,4 -17,2 -34,6 -50,11 -15,5 -27,9 -37,12 -10,4 -18,7 -25,10 -8,3 -13,5 -18,7 -4,2 -9,3 -12,5 -3,1 -6,3 -9,4 -3,1 -6,2 -9,3 -3,1 -5,1 -7,2 -2,0 -3,0 -4,0 -2,-1 -3,-1 -4,-2 -1,0 -2,-1 -3,-2 -1,0 -1,-1 -2,0 -1,0 -2,0 -3,0 0,0 -1,0 -2,0 -1,0 -2,-1 -3,-2 -1,-2 -2,-4 -2,-6 -1,-1 -1,-2 -1,-3 0,-1 0,-2 0,-3 0,-1 1,-2 1,-3 0,-1 0,-3 0,-4 0,-1 0,-2 -1,-3 0,0 0,-1 1,-2 0,-1 1,-2 2,-4 3,-2 8,-5 15,-10 7,-5 15,-11 26,-17 10,-5 21,-11 34,-18 13,-6 28,-11 43,-17 15,-5 32,-9 50,-13 17,-3 35,-5 55,-6 19,0 36,2 50,7 15,4 27,10 38,18 11,7 20,16 28,26 7,9 13,19 17,29 5,10 8,19 10,28 2,9 3,17 3,24zm-219 -43c0,1 0,5 -1,11 -1,6 -1,14 -2,24 -1,9 -1,20 -2,33 -1,12 -2,25 -3,38 -1,14 -1,27 -2,41 -1,14 -2,27 -2,40 0,12 0,25 -1,39 0,13 0,27 0,41 0,16 0,32 1,47 1,16 2,31 4,45 1,5 1,9 -1,12 -1,2 -2,5 -2,7 0,1 0,1 1,2 1,0 1,1 0,1 0,1 -2,2 -3,1 -2,0 -3,0 -4,-1 -1,-1 -2,-2 -2,-3 0,-1 -1,-2 -1,-2 -1,-1 -1,-1 -2,-1 -1,0 -2,0 -3,1 -1,1 -2,3 -3,5 -2,1 -3,3 -5,5 -1,2 -3,4 -4,6 -2,1 -3,2 -5,3 -1,0 -3,1 -4,1 -2,1 -3,0 -4,-2 0,-1 -1,-1 -1,-1 0,-1 -1,-1 -2,-1 0,0 -1,-1 -1,-1 -1,-1 -1,-2 -1,-4 -2,-3 -3,-6 -4,-8 -1,-2 -2,-4 -2,-6 -1,-4 -2,-14 -3,-31 -2,-18 -3,-42 -3,-72 0,-12 1,-25 1,-39 0,-15 1,-30 2,-46 1,-14 2,-30 4,-46 1,-17 3,-33 4,-49 2,-16 3,-31 5,-45 1,-13 2,-25 3,-34 0,-1 0,-2 1,-3 1,0 2,0 4,-1 1,0 3,0 5,0 3,-1 6,-2 9,-3 2,-1 5,-2 9,-4 3,-1 7,-2 10,-3 3,0 5,-1 7,0 2,0 3,1 3,3z"/>
    <path class="fil8" d="M2458 606c0,4 0,9 0,14 -1,5 -2,10 -3,15 -1,5 -3,9 -5,13 -2,4 -4,7 -7,8 -7,4 -13,5 -19,5 -4,0 -7,-1 -11,-2 -3,-3 -6,-5 -9,-7 -4,-4 -7,-8 -10,-14 -3,-5 -5,-11 -5,-16 0,-4 1,-9 2,-15 2,-5 4,-11 6,-17 2,-5 4,-10 7,-15 2,-4 4,-8 7,-9 3,-3 7,-5 10,-5 3,-1 5,0 7,0 5,1 9,3 13,4 3,2 6,4 9,8 2,3 4,7 5,13 2,5 3,12 3,20zm-26 142c1,1 2,5 2,11 1,6 1,14 1,23 0,6 0,13 0,21 -1,7 -1,15 -1,23 0,8 -1,16 -1,24 -1,8 -1,15 -1,22 -1,12 -1,23 -1,33 0,11 -1,20 -1,30 0,12 1,23 1,34 0,10 0,18 0,25 0,8 0,13 -1,17 0,4 -1,6 -3,7 -2,0 -3,1 -5,2 -1,2 -2,3 -3,4 -1,2 -3,3 -4,4 -1,1 -3,1 -5,1 -1,-1 -3,-2 -5,-3 -3,-2 -6,-4 -8,-7 -3,-2 -6,-5 -9,-8 -2,-3 -4,-7 -5,-10 0,-2 -1,-5 -1,-10 0,-5 0,-11 -1,-19 0,-7 0,-15 0,-24 -1,-9 -1,-17 -1,-27 0,-9 0,-18 0,-26 0,-9 0,-17 0,-24 0,-11 0,-22 1,-33 1,-11 2,-22 3,-32 1,-9 2,-18 3,-25 1,-8 1,-13 2,-16 1,-5 1,-9 2,-12 1,-3 2,-5 4,-6 1,-1 2,-2 3,-2 1,-1 3,-1 4,-1 2,-1 5,-1 9,-1 3,1 6,1 9,1 3,1 6,1 8,2 2,1 3,2 4,2z"/>
    <path class="fil9" d="M2870 791c-2,1 -4,2 -6,4 -2,1 -3,3 -4,6 0,2 -1,5 -2,8 0,2 -2,4 -5,5 -2,1 -6,1 -12,2 -6,0 -13,1 -21,2 -8,0 -17,1 -25,1 -9,1 -17,1 -24,1 -6,0 -12,0 -20,0 -7,0 -15,1 -25,2 -11,1 -22,2 -36,3 -1,13 -1,25 -1,38 -1,13 -1,26 -1,39 0,13 0,25 0,37 0,11 0,21 0,30l0 30c0,4 0,9 -2,13 -2,5 -4,8 -8,9 -3,2 -6,3 -8,4 -2,1 -5,2 -7,2 -2,0 -4,1 -6,1 -2,0 -4,-1 -6,-1 -3,-1 -5,-1 -6,-3 -2,-1 -4,-3 -4,-5 -1,-3 -2,-5 -3,-8 -1,-2 -2,-6 -3,-10 0,-5 -1,-12 -2,-20 -1,-8 -2,-19 -2,-33 -1,-11 0,-25 0,-42 1,-17 2,-35 4,-54 1,-19 3,-39 4,-59 2,-19 4,-38 6,-55 1,-18 3,-33 4,-46 1,-13 2,-22 3,-27 0,-5 1,-9 1,-13 1,-4 1,-8 2,-13 0,-4 0,-9 1,-13 -4,0 -8,0 -12,0 -4,0 -6,0 -8,-1 -3,0 -6,-1 -9,-2 -3,-1 -6,-3 -8,-4 -2,-2 -4,-4 -6,-5 -2,-2 -3,-4 -3,-5 0,-2 0,-3 1,-4 0,-1 1,-2 1,-3 1,0 3,-1 5,-1 -2,-4 -2,-7 -1,-8 0,-1 1,-1 1,-2 2,0 3,-1 5,-1 3,-1 4,-2 6,-3 0,-1 1,-2 2,-2 2,-1 3,-2 5,-3 1,-1 3,-1 4,-2 1,0 2,-1 3,-1 1,0 3,-1 7,-2 4,0 9,-1 14,-2 6,-1 13,-2 19,-3 7,-1 14,-2 20,-3 5,0 12,-1 23,-1 11,-1 23,-1 37,-2 14,0 28,-1 44,-1 15,0 29,-1 42,-1 11,0 21,1 30,1 8,0 14,1 18,2 5,1 9,2 12,3 3,1 6,2 7,3 2,2 3,2 4,3 0,1 0,2 0,2 0,1 0,1 0,2 -1,1 -1,2 -2,3 2,1 4,3 4,4 0,1 0,1 0,2 0,1 0,2 -1,4 0,2 -1,4 -1,6 -1,2 -1,5 -1,7 -1,2 -1,4 0,5 1,3 1,5 1,6 0,2 0,3 -1,5 -1,0 -1,0 -2,0 -1,0 -3,0 -6,0 0,0 0,1 -2,1 -1,0 -2,1 -3,1 -1,0 -4,-1 -10,-1 -6,0 -14,-1 -23,-1 -9,-1 -19,-1 -30,-2 -12,0 -23,0 -35,0 -7,0 -14,0 -22,0 -7,1 -14,1 -21,2 -10,0 -21,1 -32,1 -10,1 -21,1 -31,2 -3,33 -4,61 -6,86 -1,24 -2,44 -2,59 11,-3 22,-4 32,-6 10,-1 19,-2 26,-3 9,0 17,-1 24,-2 9,0 18,0 27,0 8,1 16,1 23,1 7,1 13,1 18,2 5,1 8,1 10,2 4,1 7,2 9,4 2,2 4,5 5,8 1,4 2,6 3,9 1,3 1,5 0,6z"/>
    <path class="fil10" d="M2994 596c0,3 0,9 0,18 -1,8 -1,19 -2,31 0,12 -1,26 -2,40 -1,15 -1,29 -2,44 -1,15 -2,29 -2,42 -1,14 -2,26 -2,36 0,6 0,13 -1,20 0,8 0,16 0,24 0,12 0,23 0,36 1,12 1,24 1,36 0,12 0,23 1,34 0,11 0,21 1,30 0,8 0,16 0,22 0,5 0,9 0,11 0,3 0,5 -1,6 -1,2 -2,3 -4,4 -1,0 -3,0 -4,0 -2,0 -3,-1 -4,-1 -1,-1 -2,-2 -3,-3 -1,-1 -1,-1 -2,-2 0,0 0,0 -1,0 0,0 0,1 -1,3 0,5 -2,9 -3,12 -2,3 -4,5 -6,6 -2,1 -4,1 -6,0 -1,0 -2,-1 -3,-2 0,-1 -1,-1 -2,-2 -1,0 -2,0 -3,0 -1,0 -2,-1 -3,-1 -1,-1 -2,-2 -2,-3 -1,-8 -2,-17 -3,-28 0,-11 -1,-24 -1,-38 0,-12 1,-25 1,-39 0,-14 0,-29 0,-43 0,-9 0,-17 0,-26 0,-8 0,-17 -1,-25l0 -20c0,-18 1,-35 2,-52 1,-18 2,-34 3,-50 1,-16 3,-31 4,-45 2,-14 3,-27 4,-38 1,-10 2,-19 2,-26 1,-7 1,-11 1,-13 0,-1 0,-2 1,-3 0,-1 1,-1 2,-1 1,0 2,0 3,0 1,-1 2,-1 3,-1 1,-1 2,-1 3,-1 1,0 2,1 3,1 0,1 1,2 2,2 0,1 1,2 2,2 1,-1 2,-1 3,-2 1,0 1,-1 2,-1 0,-1 1,-1 1,-2 1,0 2,0 3,0 1,0 3,1 4,1 2,0 3,0 3,-1 0,-2 1,-2 2,-2 1,0 2,0 3,1 1,2 2,3 3,4 1,1 1,3 1,5z"/>
    <path class="fil11" d="M3263 887c0,23 -3,43 -10,61 -6,18 -15,33 -26,45 -11,13 -24,23 -39,29 -14,7 -30,11 -46,11 -7,0 -15,-1 -23,-3 -8,-1 -16,-4 -24,-8 -8,-3 -16,-8 -24,-14 -7,-6 -14,-13 -20,-22 -6,-9 -11,-19 -14,-31 -4,-11 -5,-25 -5,-40 0,-18 2,-34 6,-48 4,-14 10,-27 17,-38 6,-12 14,-22 22,-30 9,-8 18,-15 26,-21 9,-6 17,-10 25,-12 7,-3 14,-5 20,-5 3,0 4,0 4,1 0,1 -1,2 -2,3 -2,1 -3,2 -4,3 -1,1 0,2 1,2 2,0 3,0 4,1 1,0 2,1 3,2l3 -3c1,-1 3,-2 4,-2 1,0 3,0 4,1 1,0 2,0 2,0 1,0 1,-1 1,-2 1,-2 2,-4 3,-4 1,0 4,0 8,0 2,0 6,0 12,2 5,1 11,4 17,8 6,3 12,8 19,14 6,6 12,14 18,23 5,9 10,20 13,33 4,13 5,28 5,44zm-115 -93c-7,4 -15,10 -22,18 -7,8 -14,17 -20,27 -5,10 -10,21 -14,33 -3,12 -5,25 -5,39 0,15 1,28 4,40 2,12 6,22 11,30 6,9 12,15 19,20 7,4 16,7 25,7 8,0 17,-3 25,-7 8,-5 15,-12 22,-21 6,-10 11,-21 15,-35 4,-14 6,-30 6,-48 0,-19 -2,-34 -7,-47 -5,-12 -11,-23 -17,-30 -6,-8 -12,-14 -17,-17 -6,-3 -9,-5 -10,-5 -3,0 -6,0 -7,0 -2,0 -4,-1 -8,-4z"/>
    <path class="fil12" d="M3531 887c0,23 -4,43 -10,61 -7,18 -15,33 -27,45 -11,13 -24,23 -38,29 -15,7 -31,11 -47,11 -7,0 -14,-1 -22,-3 -8,-1 -16,-4 -25,-8 -8,-3 -15,-8 -23,-14 -8,-6 -15,-13 -21,-22 -6,-9 -10,-19 -14,-31 -3,-11 -5,-25 -5,-40 0,-18 2,-34 7,-48 4,-14 9,-27 16,-38 7,-12 14,-22 23,-30 8,-8 17,-15 25,-21 9,-6 17,-10 25,-12 8,-3 15,-5 20,-5 3,0 5,0 4,1 0,1 -1,2 -2,3 -1,1 -2,2 -3,3 -1,1 -1,2 1,2 1,0 3,0 3,1 1,0 2,1 3,2l3 -3c1,-1 3,-2 4,-2 2,0 3,0 4,1 1,0 2,0 3,0 0,0 1,-1 1,-2 0,-2 1,-4 2,-4 1,0 4,0 8,0 3,0 7,0 12,2 5,1 11,4 17,8 7,3 13,8 19,14 7,6 13,14 18,23 6,9 10,20 13,33 4,13 6,28 6,44zm-116 -93c-7,4 -14,10 -22,18 -7,8 -13,17 -19,27 -6,10 -11,21 -14,33 -4,12 -6,25 -6,39 0,15 1,28 4,40 3,12 7,22 12,30 5,9 11,15 18,20 8,4 16,7 26,7 8,0 16,-3 24,-7 8,-5 16,-12 22,-21 6,-10 12,-21 16,-35 4,-14 5,-30 5,-48 0,-19 -2,-34 -7,-47 -5,-12 -10,-23 -16,-30 -6,-8 -12,-14 -18,-17 -5,-3 -9,-5 -10,-5 -3,0 -5,0 -7,0 -1,0 -4,-1 -8,-4z"/>
    <path class="fil13" d="M3731 793c0,6 0,12 -1,18 -1,6 -3,12 -4,17 -2,6 -4,10 -7,15 -2,4 -5,7 -8,10 -2,2 -4,3 -6,3 -1,0 -2,0 -3,-1 -1,-1 -2,-2 -3,-3 -1,-1 -1,-2 -2,-2 -1,0 -2,0 -4,0 -1,1 -3,1 -4,0 -1,0 -3,-1 -4,-2 -1,-1 -2,-4 -2,-7 -1,-4 0,-10 0,-16 1,-7 1,-13 1,-19 0,-6 0,-10 -1,-14 -2,-4 -4,-6 -7,-6 -1,0 -4,1 -7,4 -4,2 -8,7 -13,14 -4,7 -9,18 -13,31 -5,14 -8,32 -11,55 0,29 0,53 1,71 0,18 0,32 0,42 0,8 0,14 0,18 -1,3 -2,6 -3,7 -1,1 -4,1 -7,2 -3,1 -6,2 -10,3 -3,1 -6,2 -10,2 -3,1 -5,1 -6,1 0,0 -1,-1 -3,-2 -2,-1 -4,-3 -5,-5 -2,-1 -4,-3 -5,-5 -2,-2 -3,-3 -3,-4 0,-3 0,-7 0,-15 0,-7 0,-17 0,-27 0,-11 0,-23 0,-35 1,-13 1,-25 1,-38 0,-8 0,-17 0,-27 1,-10 2,-20 2,-30 1,-10 2,-20 3,-30 1,-10 1,-19 2,-26 1,-8 2,-15 2,-20 1,-5 1,-8 1,-9 0,-2 1,-3 3,-2 1,0 3,1 4,2 2,1 3,2 4,3 2,1 3,1 3,0 0,-2 2,-2 5,-1 3,1 5,3 7,5 1,1 2,2 3,2 2,1 3,2 4,3 1,1 2,3 2,5 1,2 2,4 2,8 0,3 0,7 0,13 1,6 1,13 2,21 2,-8 5,-16 8,-24 4,-9 8,-17 12,-24 5,-7 10,-13 17,-17 6,-5 14,-7 23,-7 5,0 10,1 15,2 4,2 9,5 13,9 4,4 7,8 9,14 3,5 4,11 3,18z"/>
   </g>
  </g>
 </g>
</svg>
