<?xml version="1.0" encoding="UTF-8"?>
<!DOCTYPE svg PUBLIC "-//W3C//DTD SVG 1.1//EN" "http://www.w3.org/Graphics/SVG/1.1/DTD/svg11.dtd">
<!-- Creator: CorelDRAW X7 -->
<svg xmlns="http://www.w3.org/2000/svg" xml:space="preserve" width="86.6986mm" height="34.7132mm" version="1.1" style="shape-rendering:geometricPrecision; text-rendering:geometricPrecision; image-rendering:optimizeQuality; fill-rule:evenodd; clip-rule:evenodd"
viewBox="0 0 8670 3471"
 xmlns:xlink="http://www.w3.org/1999/xlink">
 <defs>
  <style type="text/css">
   <![CDATA[
    .fil2 {fill:#332C2B}
    .fil0 {fill:#FDFDFE}
    .fil5 {fill:#2618C4}
    .fil3 {fill:#408C86}
    .fil6 {fill:#61C21B}
    .fil4 {fill:#AD2DF7}
    .fil1 {fill:#CC1420}
    .fil11 {fill:#2618C4;fill-rule:nonzero}
    .fil8 {fill:#3531F7;fill-rule:nonzero}
    .fil10 {fill:#408C86;fill-rule:nonzero}
    .fil12 {fill:#61C21B;fill-rule:nonzero}
    .fil9 {fill:#AD2DF7;fill-rule:nonzero}
    .fil7 {fill:#CC1420;fill-rule:nonzero}
    .fil13 {fill:#FFD012;fill-rule:nonzero}
   ]]>
  </style>
 </defs>
 <g id="Layer_x0020_1">
  <metadata id="CorelCorpID_0Corel-Layer"/>
  <g id="_4263328">
   <rect class="fil0" x="2" width="8666" height="3471"/>
   <g>
    <path class="fil1" d="M2237 384c568,0 1029,461 1029,1029 0,527 -396,962 -906,1023l0 237c0,68 -55,123 -123,123 -68,0 -124,-55 -124,-123l0 -237 0 -161 0 -89c41,7 82,10 124,10 432,0 782,-350 782,-783 0,-432 -350,-782 -782,-782 -433,0 -783,350 -783,782l0 0c0,68 -55,124 -124,124 -68,0 -123,-56 -123,-124l0 0c0,-568 461,-1029 1030,-1029z"/>
    <circle class="fil2" cx="2237" cy="2964" r="123"/>
    <path class="fil3" d="M2229 844c-129,1 -248,46 -343,120 -1,25 -11,50 -30,69 -19,19 -44,29 -69,30 -74,95 -119,214 -120,343 4,-154 130,-277 285,-277l0 0 0 -1c0,-155 123,-281 277,-284z"/>
    <circle class="fil2" transform="matrix(0.162002 -0.161998 0.162002 0.161998 1784.52 961.336)" r="394"/>
    <path class="fil4" d="M1667 1421c1,129 46,248 120,343 25,1 50,10 69,30 19,19 29,44 30,69 95,74 214,118 343,120 -154,-4 -277,-130 -277,-285l0 0 0 0c-155,0 -281,-123 -285,-277z"/>
    <circle class="fil2" transform="matrix(-0.162002 -0.161998 0.162002 -0.161998 1784.52 1865.32)" r="394"/>
    <path class="fil5" d="M2244 1983c129,-1 248,-46 343,-120 1,-25 11,-50 30,-69 19,-19 44,-29 69,-30 74,-95 119,-214 121,-343 -4,154 -130,277 -285,277l0 0 0 1c0,154 -124,280 -278,284z"/>
    <circle class="fil2" transform="matrix(-0.162002 0.161998 -0.162002 -0.161998 2688.73 1865.52)" r="394"/>
    <path class="fil6" d="M2807 1406c-2,-130 -47,-249 -121,-344 -25,0 -50,-10 -69,-29 -19,-19 -29,-44 -30,-69 -95,-74 -213,-119 -343,-121 154,4 278,130 278,285l0 0 0 0c155,0 281,124 285,278z"/>
    <circle class="fil2" transform="matrix(0.162002 0.161998 -0.162002 0.161998 2688.81 961.013)" r="394"/>
    <path class="fil7" d="M4700 1352c0,24 -4,48 -11,73 -8,25 -19,49 -34,72 -15,23 -32,44 -53,65 -21,20 -43,38 -69,54 -25,15 -52,28 -82,38 -29,9 -60,15 -92,17 -6,1 -12,1 -17,0 -6,-1 -11,-2 -16,-3 -3,-2 -8,-3 -14,-6 -6,-3 -10,-4 -12,-6 -3,-2 -6,-6 -11,-12 -4,-5 -7,-9 -10,-13 -1,-2 -1,-5 -1,-10 0,-5 0,-11 0,-17 0,-6 0,-12 0,-19 0,-7 0,-10 1,-11 1,-1 3,0 7,2 3,2 9,4 18,5 4,1 9,2 13,1 5,0 10,-1 15,-2 15,-1 32,-5 52,-13 19,-7 39,-16 60,-28 20,-12 41,-26 61,-42 20,-16 38,-33 53,-51 16,-19 28,-38 38,-59 9,-20 14,-41 14,-62 0,-16 -3,-31 -9,-46 -7,-16 -17,-30 -30,-45 -9,-10 -25,-18 -50,-23 -25,-6 -55,-9 -89,-9 -29,0 -61,3 -94,7 -34,5 -67,13 -101,23 -28,10 -53,18 -72,25 -20,7 -38,13 -52,19 -14,5 -26,10 -35,14 -9,4 -17,7 -24,10 -7,2 -13,5 -18,7 -6,3 -12,5 -18,7 -6,1 -11,3 -14,3 -4,0 -6,0 -9,0 -3,-1 -6,-2 -7,-3 -1,-1 -3,-2 -5,-3 -2,-1 -4,-2 -5,-2 -2,0 -4,1 -5,1 -2,1 -3,1 -5,0 -2,0 -3,-2 -5,-4 -3,-5 -4,-9 -6,-11 -1,-3 -1,-5 -1,-7 -1,-2 0,-4 0,-6 0,-2 1,-4 2,-6 0,-3 0,-5 0,-7 -1,-2 -1,-4 -1,-6 0,-2 0,-4 0,-5 1,-2 3,-5 6,-7 6,-5 16,-12 29,-22 14,-10 31,-20 51,-32 20,-12 43,-24 70,-36 26,-12 54,-24 85,-34 31,-11 64,-19 99,-27 35,-7 72,-10 110,-11 38,-1 72,3 101,12 29,9 55,21 77,36 21,16 40,33 54,52 15,20 27,39 35,59 10,19 16,38 20,56 4,19 6,35 6,48zm-438 -86c0,2 -1,10 -2,22 -1,12 -2,28 -4,48 -1,19 -3,41 -5,66 -1,24 -3,50 -5,77 -1,26 -3,54 -4,81 -2,28 -3,54 -3,79 -1,26 -2,52 -2,79 -1,27 -1,54 -1,82 0,32 1,63 2,94 2,31 4,61 8,90 2,10 1,18 -2,23 -3,6 -4,11 -4,15 0,1 0,2 2,4 1,0 1,1 0,2 -1,3 -3,3 -6,3 -3,-1 -6,-2 -9,-4 -1,-1 -2,-3 -3,-5 -1,-2 -2,-3 -3,-5 -1,-1 -1,-2 -3,-2 -1,0 -3,1 -6,3 -2,2 -4,5 -7,9 -3,4 -5,8 -9,12 -3,4 -5,7 -8,11 -4,3 -6,5 -9,6 -3,1 -6,2 -10,2 -3,1 -5,0 -6,-4 -1,-1 -2,-2 -3,-3 -1,0 -2,-1 -3,-1 -1,-1 -3,-2 -4,-3 -1,-1 -1,-3 -2,-7 -2,-7 -4,-12 -7,-16 -3,-4 -4,-8 -4,-12 -1,-8 -3,-28 -6,-63 -4,-34 -5,-82 -5,-143 0,-24 0,-50 1,-79 0,-29 2,-59 4,-91 2,-28 5,-59 8,-92 3,-33 6,-66 9,-98 3,-32 6,-61 8,-89 3,-28 5,-51 6,-69 1,-2 2,-4 3,-5 2,-1 5,-2 7,-2 3,-1 7,-1 12,-2 5,0 10,-2 16,-4 6,-3 12,-6 19,-8 7,-3 13,-5 20,-6 6,-2 11,-2 15,-2 4,0 6,3 5,7z"/>
    <path class="fil8" d="M4916 1211c0,9 0,18 -1,29 -1,10 -3,20 -5,30 -2,10 -6,18 -10,26 -4,8 -9,13 -14,16 -14,7 -27,11 -37,11 -9,0 -16,-2 -22,-6 -6,-4 -12,-9 -18,-14 -9,-7 -16,-16 -22,-27 -6,-11 -8,-21 -8,-32 0,-8 1,-17 4,-29 3,-12 6,-23 10,-34 5,-11 9,-22 14,-31 5,-9 10,-15 15,-19 7,-6 13,-9 20,-9 6,-1 11,-1 15,1 9,2 17,4 24,8 8,3 14,8 19,14 5,7 8,15 11,26 2,11 4,24 5,40zm-52 286c2,2 3,9 4,21 1,12 2,27 2,46 0,13 0,27 -1,42 0,15 -1,30 -1,46 -1,15 -2,31 -2,47 -1,16 -2,32 -2,46 -2,24 -2,46 -3,66 0,20 0,40 0,58 0,25 0,48 1,68 0,21 0,38 0,51 0,15 0,26 -1,34 -1,8 -4,12 -7,13 -4,1 -7,3 -10,6 -2,3 -4,5 -7,8 -2,2 -4,4 -7,6 -3,2 -6,3 -10,2 -2,0 -6,-2 -11,-6 -5,-3 -10,-7 -16,-12 -6,-5 -11,-11 -16,-17 -5,-7 -9,-13 -10,-20 -1,-3 -2,-10 -3,-20 0,-11 -1,-23 -1,-37 -1,-15 -1,-31 -2,-48 0,-18 0,-36 0,-54 -1,-18 -1,-36 -1,-53 0,-18 0,-34 0,-48 0,-21 1,-44 3,-66 1,-23 3,-44 5,-63 1,-20 3,-37 5,-52 2,-14 3,-25 4,-30 2,-11 4,-19 6,-24 2,-6 4,-10 6,-13 2,-2 5,-4 7,-5 3,0 5,-1 8,-1 5,-1 11,-2 17,-1 7,0 13,1 19,2 6,1 11,2 16,3 4,2 7,3 8,5z"/>
    <path class="fil9" d="M5739 1581c-3,3 -7,6 -10,9 -4,3 -7,7 -8,11 -1,5 -2,10 -4,16 -2,6 -5,10 -12,12 -2,1 -10,2 -22,3 -13,1 -27,2 -43,3 -16,1 -33,2 -51,3 -18,1 -33,1 -47,1 -11,0 -24,0 -40,1 -14,1 -31,2 -51,4 -20,1 -44,4 -71,7 -1,24 -2,49 -3,76 0,26 -1,52 -1,77 0,26 0,50 0,73 0,23 0,44 0,61l0 60c0,8 -1,17 -4,27 -3,9 -8,15 -16,18 -7,2 -12,4 -17,7 -4,2 -9,4 -14,4 -3,1 -6,1 -10,1 -5,0 -9,0 -14,-1 -4,-1 -8,-3 -12,-5 -4,-3 -6,-6 -7,-11 -2,-5 -4,-10 -6,-15 -2,-5 -3,-12 -5,-22 -2,-9 -3,-23 -5,-39 -2,-17 -3,-39 -4,-67 -1,-22 -1,-49 1,-83 1,-34 3,-70 6,-108 3,-38 6,-77 10,-117 3,-40 7,-77 10,-111 4,-35 7,-65 9,-91 3,-26 5,-45 6,-56 1,-8 2,-17 3,-26 0,-8 1,-16 2,-25 1,-9 2,-17 3,-26 -8,0 -16,0 -24,0 -7,0 -13,0 -15,-1 -7,-1 -13,-3 -19,-5 -6,-3 -11,-6 -16,-9 -4,-3 -8,-6 -12,-10 -3,-3 -5,-7 -6,-10 0,-3 0,-5 1,-7 1,-2 2,-4 4,-5 2,-2 4,-3 8,-4 -2,-7 -3,-12 -1,-15 0,-2 1,-3 2,-3 3,-1 7,-2 11,-4 4,-1 8,-3 11,-5 0,-2 2,-3 5,-5 3,-1 6,-3 8,-5 4,-1 6,-3 9,-4 3,-1 5,-2 6,-2 1,-1 6,-2 13,-3 8,-2 18,-3 30,-5 11,-2 24,-4 38,-6 14,-3 27,-4 40,-5 9,-1 24,-2 46,-3 21,-1 46,-2 73,-4 28,-1 57,-1 87,-2 30,-1 58,-1 85,-1 23,0 43,0 60,1 17,1 29,2 36,3 10,3 18,5 24,7 6,2 11,5 14,7 4,2 6,4 7,6 1,2 2,3 1,3 0,1 0,2 0,3 -1,3 -2,5 -4,7 5,2 7,5 8,8 0,1 1,3 1,3 -1,2 -1,5 -2,9 -2,4 -2,8 -3,12 -1,5 -2,9 -3,14 0,4 0,8 1,10 1,5 2,10 2,13 1,3 0,6 -2,8 -1,1 -2,1 -4,1 -2,1 -6,0 -12,-1 1,1 -1,3 -4,3 -2,1 -4,1 -5,1 -2,0 -9,0 -21,-1 -12,-1 -27,-1 -46,-2 -18,-2 -38,-2 -61,-3 -22,-1 -45,-1 -68,-1 -15,0 -30,0 -44,1 -15,1 -29,1 -42,2 -21,1 -43,3 -64,4 -22,1 -43,2 -63,3 -5,65 -9,123 -11,171 -3,49 -5,88 -6,118 23,-4 45,-8 65,-10 20,-2 38,-5 53,-6 17,-2 32,-3 47,-4 18,0 36,0 53,0 17,0 33,1 47,2 13,1 25,2 35,3 10,1 18,3 22,4 7,2 13,5 17,9 4,4 7,9 10,16 3,6 5,12 7,17 1,6 1,9 -2,11z"/>
    <path class="fil10" d="M5989 1192c0,6 -1,18 -1,35 -1,18 -2,39 -3,63 -2,25 -3,51 -5,81 -1,29 -3,58 -4,87 -2,29 -4,57 -5,84 -1,28 -2,52 -3,72 0,12 -1,26 -1,41 0,15 0,31 0,48 0,22 0,46 0,70 0,25 1,49 1,73 0,24 1,46 1,68 1,22 2,42 2,59 0,18 1,32 1,44 0,12 0,19 0,22 0,6 -1,11 -3,14 -1,3 -4,5 -6,6 -3,1 -6,2 -9,1 -3,-1 -6,-2 -8,-3 -2,-1 -4,-3 -6,-4 -1,-2 -3,-4 -3,-4 -1,-1 -2,-1 -3,-1 0,1 -1,2 -1,5 -2,11 -4,20 -8,25 -3,6 -7,9 -11,11 -4,2 -8,3 -11,2 -4,-1 -6,-3 -7,-5 -1,-2 -2,-3 -4,-3 -2,-1 -4,-1 -6,-1 -2,-1 -4,-1 -6,-2 -2,-1 -3,-4 -3,-7 -4,-15 -6,-33 -7,-55 -1,-23 -1,-48 -1,-76 0,-24 0,-50 0,-78 1,-28 1,-57 1,-87 0,-17 0,-33 0,-50 0,-17 0,-34 -1,-52l0 -40c0,-34 1,-69 2,-104 2,-34 4,-68 7,-100 2,-31 5,-61 8,-90 3,-28 6,-53 8,-74 2,-22 4,-40 5,-53 1,-14 2,-22 1,-26 0,-3 0,-5 1,-6 1,-1 3,-2 5,-2 2,0 4,-1 6,-1 2,0 4,-1 5,-2 3,-1 6,-2 8,-1 2,0 3,1 5,3 1,1 2,2 3,4 1,1 3,2 5,2 3,0 4,-1 6,-2 1,-1 3,-2 4,-3 1,-1 2,-2 3,-3 1,-1 2,-1 4,-1 4,1 7,2 10,2 3,0 5,-1 5,-2 1,-3 2,-5 4,-5 1,1 3,2 6,4 3,2 5,4 6,7 2,2 3,5 3,10z"/>
    <path class="fil11" d="M6526 1775c0,45 -6,85 -19,120 -13,36 -31,67 -53,92 -22,25 -48,44 -78,58 -29,13 -60,20 -93,20 -13,0 -28,-1 -44,-4 -17,-4 -33,-9 -49,-16 -16,-7 -32,-17 -47,-29 -16,-12 -29,-26 -41,-44 -12,-17 -21,-38 -28,-61 -8,-24 -11,-51 -10,-81 0,-35 4,-67 12,-96 9,-28 20,-54 33,-77 14,-23 29,-42 46,-59 17,-17 34,-30 51,-42 17,-11 33,-19 49,-25 16,-6 30,-9 41,-9 6,-1 9,0 8,1 -1,2 -2,4 -5,6 -2,2 -5,4 -6,7 -2,2 -2,3 2,3 3,1 5,2 7,3 2,1 4,2 6,3l5 -6c3,-2 6,-3 9,-3 3,0 5,0 7,1 2,1 4,1 5,1 2,0 2,-1 3,-4 1,-4 2,-7 5,-8 2,0 7,-1 16,-1 5,0 13,2 23,5 11,3 22,8 35,15 12,7 25,17 38,29 13,12 25,28 36,46 11,19 19,41 26,66 7,26 10,55 10,89zm-230 -187c-15,9 -30,21 -44,36 -15,16 -28,33 -39,53 -12,20 -21,43 -29,67 -7,25 -11,51 -11,78 0,29 3,56 8,80 6,24 14,44 24,61 10,17 22,30 37,39 15,9 31,13 50,13 17,0 33,-4 50,-13 16,-10 31,-24 43,-43 13,-18 24,-42 31,-69 8,-28 12,-60 12,-97 0,-37 -5,-68 -14,-93 -10,-25 -21,-45 -33,-61 -13,-15 -24,-26 -35,-33 -11,-7 -18,-10 -21,-10 -6,0 -10,0 -13,0 -3,0 -9,-3 -16,-8z"/>
    <path class="fil12" d="M7061 1775c0,45 -6,85 -19,120 -13,36 -31,67 -53,92 -23,25 -48,44 -78,58 -29,13 -60,20 -93,20 -13,0 -28,-1 -45,-4 -16,-4 -32,-9 -48,-16 -16,-7 -32,-17 -47,-29 -16,-12 -29,-26 -41,-44 -12,-17 -22,-38 -28,-61 -8,-24 -11,-51 -11,-81 0,-35 5,-67 13,-96 9,-28 20,-54 33,-77 14,-23 29,-42 46,-59 17,-17 34,-30 51,-42 17,-11 33,-19 49,-25 16,-6 29,-9 41,-9 6,-1 8,0 8,1 -1,2 -2,4 -5,6 -2,2 -5,4 -7,7 -1,2 -1,3 3,3 2,1 5,2 7,3 2,1 4,2 6,3l5 -6c3,-2 6,-3 9,-3 2,0 5,0 7,1 2,1 4,1 5,1 1,0 2,-1 3,-4 1,-4 2,-7 4,-8 3,0 8,-1 17,-1 5,0 13,2 23,5 11,3 22,8 35,15 12,7 25,17 38,29 13,12 25,28 36,46 11,19 19,41 26,66 7,26 10,55 10,89zm-230 -187c-15,9 -30,21 -44,36 -15,16 -28,33 -39,53 -12,20 -22,43 -29,67 -7,25 -11,51 -11,78 0,29 3,56 8,80 6,24 13,44 24,61 10,17 22,30 37,39 15,9 31,13 50,13 17,0 33,-4 49,-13 17,-10 31,-24 44,-43 13,-18 23,-42 31,-69 8,-28 12,-60 12,-97 0,-37 -5,-68 -15,-93 -9,-25 -20,-45 -33,-61 -12,-15 -23,-26 -34,-33 -11,-7 -18,-10 -21,-10 -6,0 -10,0 -14,0 -3,0 -8,-3 -15,-8z"/>
    <path class="fil13" d="M7463 1585c-1,13 -2,25 -4,37 -2,12 -4,24 -8,34 -3,11 -7,21 -12,29 -5,9 -10,16 -17,21 -5,4 -9,6 -12,6 -3,0 -5,0 -7,-2 -2,-2 -3,-4 -5,-6 -1,-2 -3,-3 -5,-4 -1,0 -4,0 -6,0 -3,1 -6,1 -9,1 -3,-1 -5,-2 -7,-5 -3,-3 -4,-8 -5,-15 -1,-8 -1,-18 1,-32 1,-13 2,-25 2,-37 0,-12 -1,-21 -4,-28 -2,-8 -6,-11 -12,-11 -3,0 -8,2 -16,6 -7,5 -15,14 -24,29 -9,14 -18,35 -27,63 -9,27 -16,63 -22,109 0,59 1,106 2,142 0,36 1,63 1,83 0,17 -1,29 -1,37 -1,7 -3,12 -7,14 -2,1 -6,3 -12,5 -6,1 -13,3 -20,5 -7,2 -14,3 -20,4 -7,2 -11,2 -12,2 -2,-1 -4,-2 -7,-4 -4,-3 -7,-6 -11,-9 -4,-3 -7,-7 -10,-11 -3,-3 -4,-6 -5,-9 -1,-4 -1,-14 -1,-29 0,-15 1,-33 1,-54 0,-22 0,-45 1,-70 0,-26 0,-51 0,-76 0,-16 1,-34 2,-54 1,-20 2,-40 4,-60 1,-21 3,-41 5,-60 1,-20 3,-37 4,-53 2,-15 3,-29 4,-39 1,-10 2,-17 3,-19 0,-3 2,-4 4,-3 3,0 6,2 9,4 3,2 6,4 9,6 2,1 4,1 5,0 1,-4 4,-5 10,-2 5,3 10,6 15,9 2,2 4,4 6,6 2,1 5,3 6,6 3,2 5,5 6,9 1,4 2,9 2,15 0,6 1,15 1,27 1,12 2,26 4,42 4,-15 10,-31 17,-49 6,-17 14,-32 24,-46 9,-15 20,-27 33,-36 13,-9 28,-14 46,-14 10,0 19,2 29,6 10,4 19,9 27,17 7,7 14,16 18,27 5,10 7,23 7,36z"/>
   </g>
  </g>
 </g>
</svg>
