<?xml version="1.0" encoding="UTF-8"?>
<!DOCTYPE svg PUBLIC "-//W3C//DTD SVG 1.1//EN" "http://www.w3.org/Graphics/SVG/1.1/DTD/svg11.dtd">
<!-- Creator: CorelDRAW X7 -->
<svg xmlns="http://www.w3.org/2000/svg" xml:space="preserve" width="12.8692mm" height="12.8692mm" version="1.1" style="shape-rendering:geometricPrecision; text-rendering:geometricPrecision; image-rendering:optimizeQuality; fill-rule:evenodd; clip-rule:evenodd"
viewBox="0 0 1287 1287"
 xmlns:xlink="http://www.w3.org/1999/xlink">
 <defs>
  <style type="text/css">
   <![CDATA[
    .fil2 {fill:#FEFEFE}
    .fil1 {fill:#0DA396}
    .fil0 {fill:#29BAAE}
   ]]>
  </style>
 </defs>
 <g id="Layer_x0020_1">
  <metadata id="CorelCorpID_0Corel-Layer"/>
  <g id="_783739248">
   <rect class="fil0" width="1287" height="1287" rx="265" ry="265"/>
   <g>
    <path class="fil1" d="M371 366l1 -2 5 -9c-2,4 -4,7 -6,11zm323 921l-429 0c-146,0 -265,-119 -265,-265l0 -170 275 -514c66,-137 206,-231 368,-231 226,0 409,183 409,408 0,72 -18,140 -51,199l-307 573zm241 -664l-5 13c2,-4 4,-9 5,-13zm-8 19l-3 8c2,-5 4,-9 6,-13l-3 5zm17 -48l-2 6 -2 7c2,-4 3,-9 4,-13zm4 -18l0 2c1,-5 2,-10 3,-15l-3 13zm0 2l-2 8 -1 7c1,-5 2,-10 3,-15zm6 -46l-1 15c0,-5 0,-10 1,-15zm0 -33l0 16c0,-5 0,-10 0,-16zm-3 -31l2 16c-1,-6 -2,-11 -2,-16zm2 16l1 15c0,-5 -1,-10 -1,-15zm-9 -46l4 15c-1,-5 -2,-10 -4,-15zm4 15l3 15c-1,-5 -2,-10 -3,-15zm-13 -44l5 14c-1,-5 -3,-10 -5,-14zm5 14l4 15c-1,-5 -2,-10 -4,-15zm-23 -56l7 14c-3,-5 -5,-9 -7,-14zm7 14l6 14c-2,-5 -4,-10 -6,-14zm6 14l5 14c-1,-5 -3,-10 -5,-14zm-38 -65l9 12c-3,-4 -6,-8 -9,-12zm9 12l8 12c-2,-4 -5,-8 -8,-12zm8 12l8 13c-3,-4 -5,-8 -8,-13zm-46 -58l10 11c-3,-4 -6,-8 -10,-11zm10 11l10 11c-3,-4 -6,-8 -10,-11zm10 11l9 12c-3,-4 -6,-8 -9,-12zm-54 -52l12 10c-4,-3 -8,-7 -12,-10zm12 10l11 9c-3,-3 -7,-6 -11,-9zm11 9l11 11c-3,-4 -7,-7 -11,-11zm-60 -43l13 8c-5,-3 -9,-5 -13,-8zm13 8l12 8c-4,-3 -8,-6 -12,-8zm12 8l12 8c-4,-3 -8,-5 -12,-8zm-67 -34l14 5c-4,-2 -9,-4 -14,-5zm14 5l14 6c-4,-2 -9,-4 -14,-6zm14 6l14 7c-5,-2 -9,-4 -14,-7zm-57 -20l15 4c-5,-2 -10,-3 -15,-4zm15 4l14 5c-4,-2 -9,-4 -14,-5zm-45 -11l15 3c-5,-1 -10,-2 -15,-3zm15 3l15 4c-5,-2 -10,-3 -15,-4zm-47 -6l16 1c-5,0 -10,-1 -16,-1zm16 1l16 2c-5,0 -11,-1 -16,-2zm-47 -1l15 0c-5,0 -10,0 -15,0zm15 0l16 0c-5,0 -10,0 -16,0zm-38 2l6 -1c-5,1 -10,2 -15,2l9 -1zm7 -1l10 0 5 -1c-5,0 -10,1 -15,1zm-24 4l7 -2c-4,1 -9,2 -14,3l7 -1zm-92 32l12 -6c-4,2 -8,4 -12,6zm14 -7l6 -3 6 -2c-4,1 -9,3 -12,5zm13 -6l12 -5 1 0c-5,2 -9,3 -13,5zm-65 37l11 -7c-4,2 -7,4 -11,7zm25 -17l11 -6c-3,2 -7,4 -11,6zm-58 46l9 -9 0 0c-3,3 -6,6 -9,9zm22 -20l5 -4 5 -4c-4,3 -7,5 -10,8zm-32 30l4 -5 4 -3c-3,2 -6,5 -8,8zm-36 48l4 -6 2 -5c-2,4 -4,7 -6,11zm15 -23l0 0c-3,4 -5,7 -7,10l7 -10zm2 -2l7 -9c-3,3 -5,6 -7,9zm9 -11l8 -10c-3,3 -6,6 -8,10zm31 -32l7 -7 2 -2 0 0c-3,3 -6,6 -9,9zm35 -28l10 -7c-3,3 -7,5 -10,7zm23 -14l0 0 0 0zm2 -1l12 -6 -12 6zm0 0l0 0 0 0zm41 -19l13 -4 0 0c-4,1 -8,3 -13,4l0 0zm15 -4l1 -1 -1 1zm13 -4c-5,1 -9,2 -13,4l13 -4zm1 -1l14 -3c-5,1 -9,2 -14,3zm388 301l0 16c0,-5 0,-10 0,-16zm-1 33l-2 13 0 2 0 0c0,-5 1,-10 2,-15zm-13 60l-5 14 5 -14zm-5 14c2,-5 4,-9 5,-14l0 0 -5 14zm-12 29l-6 12c2,-4 4,-8 6,-12z"/>
   </g>
   <path class="fil2" d="M643 107c226,0 409,183 409,408 0,210 -157,382 -360,406l0 94c0,27 -22,49 -49,49 -27,0 -48,-22 -48,-49l0 -94 0 -63 0 -36c15,3 32,4 48,4 172,0 311,-139 311,-311 0,-171 -139,-310 -311,-310 -171,0 -310,139 -310,310l0 0c0,28 -22,49 -49,49 -27,0 -49,-21 -49,-49l0 0c0,-225 183,-408 408,-408zm227 405c-1,-51 -19,-98 -48,-136 -10,0 -20,-4 -28,-12 -7,-7 -11,-17 -11,-27 -38,-29 -85,-47 -137,-48 62,2 111,52 111,113l0 0 0 0c61,0 111,49 113,110zm-22 -201c14,14 14,36 0,50 -14,14 -36,14 -50,0 -14,-14 -14,-36 0,-50 14,-14 36,-14 50,0zm-202 431c52,-1 99,-19 137,-48 0,-10 4,-20 11,-27 8,-8 18,-12 28,-12 29,-38 47,-85 48,-137 -2,62 -52,111 -113,111l0 0 0 0c0,61 -50,111 -111,113zm202 -22c-14,14 -36,14 -50,0 -14,-14 -14,-36 0,-50 14,-14 36,-14 50,0 14,14 14,36 0,50zm-431 -202c1,52 19,99 48,137 10,0 20,4 27,11 8,8 12,18 12,28 38,29 85,47 136,48 -61,-2 -110,-52 -110,-113l0 0 0 0c-61,0 -111,-50 -113,-111zm22 202c-14,-14 -14,-36 0,-50 14,-14 36,-14 50,0 14,14 14,36 0,50 -14,14 -36,14 -50,0zm202 -431c-52,1 -99,19 -137,48 0,10 -4,20 -12,28 -7,7 -17,11 -27,11 -29,38 -47,85 -48,137 2,-62 52,-111 113,-111l0 0 0 0c0,-61 49,-111 111,-113zm-202 22c14,-14 36,-14 50,0 14,14 14,36 0,50 -14,14 -36,14 -50,0 -14,-14 -14,-36 0,-50zm204 771c27,0 49,22 49,49 0,27 -22,49 -49,49 -27,0 -48,-22 -48,-49 0,-27 21,-49 48,-49z"/>
  </g>
 </g>
</svg>
