<?xml version="1.0" encoding="UTF-8"?>
<!DOCTYPE svg PUBLIC "-//W3C//DTD SVG 1.1//EN" "http://www.w3.org/Graphics/SVG/1.1/DTD/svg11.dtd">
<!-- Creator: CorelDRAW X7 -->
<svg xmlns="http://www.w3.org/2000/svg" xml:space="preserve" width="43.3492mm" height="18.7112mm" version="1.1" style="shape-rendering:geometricPrecision; text-rendering:geometricPrecision; image-rendering:optimizeQuality; fill-rule:evenodd; clip-rule:evenodd"
viewBox="0 0 4335 1871"
 xmlns:xlink="http://www.w3.org/1999/xlink">
 <defs>
  <style type="text/css">
   <![CDATA[
    .fil1 {fill:#332C2B}
    .fil4 {fill:#2618C4}
    .fil2 {fill:#408C86}
    .fil5 {fill:#61C21B}
    .fil3 {fill:#AD2DF7}
    .fil0 {fill:#CC1420}
    .fil10 {fill:#2618C4;fill-rule:nonzero}
    .fil7 {fill:#3531F7;fill-rule:nonzero}
    .fil9 {fill:#408C86;fill-rule:nonzero}
    .fil11 {fill:#61C21B;fill-rule:nonzero}
    .fil8 {fill:#AD2DF7;fill-rule:nonzero}
    .fil6 {fill:#CC1420;fill-rule:nonzero}
    .fil12 {fill:#FFD012;fill-rule:nonzero}
   ]]>
  </style>
 </defs>
 <g id="Layer_x0020_1">
  <metadata id="CorelCorpID_0Corel-Layer"/>
  <g id="_681042464">
   <path class="fil0" d="M713 -2c394,0 714,320 714,714 0,365 -275,666 -628,709l0 164c0,47 -39,85 -86,85 -47,0 -85,-38 -85,-85l0 -164 0 -112 0 -61c27,4 56,7 85,7 300,0 543,-243 543,-543 0,-300 -243,-542 -543,-542 -300,0 -542,242 -542,542l-1 0c0,47 -38,86 -85,86 -47,0 -86,-39 -86,-86l0 0c0,-394 320,-714 714,-714z"/>
   <circle class="fil1" cx="713" cy="1787" r="85"/>
   <path class="fil2" d="M708 317c-90,1 -172,32 -238,84 0,17 -7,34 -21,48 -13,13 -30,20 -47,20 -52,66 -83,148 -84,238 3,-107 90,-192 197,-192l1 0 0 0c0,-108 85,-195 192,-198z"/>
   <circle class="fil1" transform="matrix(0.11229 -0.112288 0.11229 0.112288 399.671 398.839)" r="394"/>
   <path class="fil3" d="M318 717c1,90 32,172 84,238 17,1 34,7 47,21 14,13 21,30 21,48 66,51 148,82 238,83 -107,-3 -192,-90 -192,-197l0 0 -1 0c-107,0 -194,-86 -197,-193z"/>
   <circle class="fil1" transform="matrix(-0.11229 -0.112288 0.11229 -0.112288 399.67 1025.43)" r="394"/>
   <path class="fil4" d="M718 1107c90,-1 172,-32 238,-83 1,-18 7,-35 21,-48 13,-13 30,-20 48,-21 51,-66 82,-148 83,-238 -3,107 -90,193 -197,193l0 0 0 0c0,107 -86,195 -193,197z"/>
   <circle class="fil1" transform="matrix(-0.11229 0.112288 -0.11229 -0.112288 1026.42 1025.57)" r="394"/>
   <path class="fil5" d="M1108 707c-1,-90 -32,-172 -83,-238 -18,-1 -35,-7 -48,-21 -14,-13 -20,-30 -21,-47 -66,-52 -148,-83 -238,-84 107,3 193,90 193,197l0 1 0 0c107,0 194,85 197,192z"/>
   <circle class="fil1" transform="matrix(0.11229 0.112288 -0.11229 0.112288 1026.47 398.614)" r="394"/>
   <path class="fil6" d="M2421 669c0,17 -3,34 -8,51 -6,17 -14,34 -24,50 -10,16 -22,31 -36,45 -15,14 -31,27 -48,37 -18,11 -37,20 -57,27 -20,6 -41,11 -64,12 -4,1 -8,1 -12,0 -4,-1 -7,-2 -11,-3 -2,0 -5,-2 -10,-4 -4,-1 -7,-3 -8,-4 -2,-1 -4,-4 -7,-8 -3,-3 -5,-6 -7,-9 -1,-1 -1,-4 -1,-7 0,-3 0,-7 0,-12 0,-4 0,-8 0,-13 0,-4 0,-7 1,-8 1,0 2,0 4,2 2,2 7,3 13,4 3,0 6,0 9,0 4,0 7,-1 10,-1 11,-1 23,-4 36,-9 14,-5 28,-12 42,-20 14,-8 28,-18 42,-29 14,-11 26,-23 37,-36 11,-12 20,-26 26,-40 7,-14 10,-28 10,-43 0,-11 -2,-22 -6,-32 -5,-11 -12,-21 -21,-31 -6,-7 -18,-13 -35,-16 -17,-4 -37,-6 -61,-6 -21,0 -42,1 -66,5 -23,3 -46,8 -69,16 -20,6 -37,12 -51,17 -13,5 -25,9 -35,13 -10,4 -18,7 -25,9 -6,3 -11,5 -16,7 -5,2 -9,4 -13,6 -4,1 -8,3 -12,4 -4,1 -8,2 -10,2 -2,1 -4,1 -6,1 -2,-1 -4,-2 -5,-2 -1,-1 -2,-2 -4,-3 -1,-1 -2,-1 -3,-1 -1,0 -3,0 -4,1 -1,0 -2,0 -3,0 -1,-1 -2,-2 -3,-3 -2,-4 -3,-6 -4,-8 -1,-2 -1,-4 -2,-5 0,-1 0,-3 1,-4 0,-1 1,-3 1,-4 0,-2 0,-4 0,-5 0,-2 0,-3 -1,-4 0,-1 0,-3 1,-4 0,-1 1,-3 4,-5 4,-3 10,-8 20,-14 9,-7 21,-15 35,-23 14,-8 30,-16 48,-25 18,-8 38,-16 60,-23 21,-8 44,-14 68,-19 25,-5 50,-7 77,-8 26,-1 49,2 70,9 20,6 38,15 52,25 16,11 28,22 38,36 10,13 19,27 25,40 6,14 11,27 13,40 3,12 4,23 5,32zm-304 -59c0,2 -1,7 -1,15 -1,9 -2,20 -3,33 -1,13 -2,29 -3,46 -2,17 -3,35 -4,53 -1,19 -2,38 -3,57 -1,19 -2,37 -2,55 -1,17 -1,35 -2,54 0,19 0,38 0,57 0,22 0,44 1,65 2,22 3,43 6,63 1,7 1,12 -1,16 -2,4 -3,7 -3,10 0,1 0,2 1,2 1,1 1,2 0,2 -1,2 -2,2 -4,2 -2,0 -4,-1 -6,-2 -1,-1 -2,-2 -2,-4 -1,-1 -2,-2 -2,-3 -1,-1 -1,-1 -2,-2 -1,0 -3,1 -4,2 -2,2 -4,4 -5,7 -2,2 -4,5 -7,8 -2,3 -4,5 -6,7 -2,2 -4,4 -6,4 -2,1 -4,2 -6,2 -3,1 -4,0 -5,-2 -1,-2 -1,-2 -2,-3 0,0 -1,0 -2,-1 -1,0 -2,-1 -2,-2 -1,0 -2,-2 -2,-4 -1,-5 -3,-9 -5,-11 -2,-3 -3,-6 -3,-9 -1,-5 -2,-20 -4,-44 -2,-23 -3,-56 -3,-99 0,-16 0,-35 0,-54 1,-20 2,-41 3,-63 2,-20 3,-41 5,-64 3,-23 5,-46 7,-68 2,-22 4,-43 6,-62 2,-19 3,-35 4,-47 0,-2 1,-4 2,-4 1,-1 3,-1 5,-2 2,0 5,0 8,-1 3,0 7,-1 11,-3 4,-2 8,-4 13,-5 5,-2 9,-4 14,-5 4,-1 7,-1 10,-1 3,0 4,2 4,5z"/>
   <path class="fil7" d="M2570 572c0,6 0,13 0,20 -1,7 -2,14 -4,21 -2,7 -4,13 -7,18 -2,5 -6,9 -10,11 -9,5 -18,7 -25,7 -6,0 -11,-1 -16,-4 -4,-3 -8,-6 -12,-9 -6,-5 -11,-11 -15,-19 -4,-7 -6,-15 -6,-22 0,-6 1,-12 3,-20 2,-9 4,-16 7,-24 3,-8 6,-15 10,-21 3,-7 6,-11 10,-13 5,-4 9,-7 14,-7 4,-1 7,0 10,1 7,1 12,3 17,5 5,2 9,6 13,10 3,5 6,11 8,18 1,8 3,17 3,28zm-36 198c1,1 2,6 3,14 1,9 1,19 1,33 0,9 0,18 0,28 0,11 -1,21 -1,32 -1,11 -1,22 -2,33 0,11 -1,22 -1,32 -1,16 -1,32 -2,46 0,14 0,27 0,40 0,17 0,33 1,47 0,14 0,26 0,35 0,11 0,19 -1,24 -1,6 -2,9 -5,9 -2,1 -5,2 -6,4 -2,2 -4,4 -5,5 -2,2 -3,4 -5,5 -2,2 -5,2 -7,1 -2,0 -4,-1 -8,-4 -3,-2 -7,-5 -11,-8 -4,-4 -8,-8 -11,-12 -4,-4 -6,-9 -7,-14 -1,-2 -2,-7 -2,-14 0,-7 -1,-16 -1,-26 0,-10 -1,-21 -1,-33 0,-12 0,-25 -1,-37 0,-13 0,-25 0,-37 0,-12 0,-23 0,-33 0,-15 1,-30 2,-46 1,-15 2,-30 3,-44 2,-13 3,-25 4,-35 2,-10 2,-18 3,-22 1,-7 3,-12 4,-16 1,-4 3,-7 4,-9 2,-2 4,-3 5,-3 2,-1 4,-1 5,-1 4,-1 8,-1 12,-1 5,0 9,1 13,2 5,0 8,1 11,2 3,1 5,2 6,3z"/>
   <path class="fil8" d="M3141 829c-2,2 -5,3 -8,5 -2,3 -4,5 -5,8 0,4 -1,7 -3,11 -1,4 -3,7 -8,8 -2,1 -7,2 -15,2 -9,1 -19,2 -30,3 -11,1 -23,2 -35,2 -12,1 -23,1 -33,1 -8,0 -17,0 -28,0 -9,1 -21,2 -35,3 -14,1 -30,3 -49,5 -1,17 -2,34 -2,52 0,19 -1,36 -1,54 0,18 0,35 0,51 0,16 0,30 0,42l0 42c0,5 -1,11 -3,18 -2,7 -6,11 -10,13 -5,1 -9,3 -12,4 -3,2 -7,3 -10,4 -2,0 -4,0 -7,0 -4,0 -7,0 -10,-1 -3,-1 -6,-2 -8,-4 -3,-1 -4,-4 -5,-7 -2,-4 -3,-7 -4,-10 -1,-4 -3,-9 -4,-15 -1,-7 -2,-16 -3,-28 -2,-11 -2,-27 -3,-46 -1,-15 0,-34 1,-58 1,-23 2,-48 4,-74 2,-27 4,-54 7,-82 2,-27 5,-53 7,-77 2,-24 4,-45 6,-63 2,-18 3,-30 4,-38 1,-6 1,-12 2,-18 1,-6 1,-11 2,-18 0,-6 1,-12 2,-18 -6,0 -11,0 -17,0 -5,0 -9,0 -10,-1 -5,0 -9,-1 -13,-3 -4,-2 -8,-4 -11,-6 -4,-2 -6,-4 -9,-7 -2,-2 -3,-5 -4,-7 0,-2 0,-3 1,-5 0,-1 1,-3 2,-4 1,-1 3,-1 6,-2 -2,-5 -2,-9 -1,-11 0,-1 1,-2 2,-2 2,0 4,-1 7,-2 3,-1 6,-2 8,-4 0,-1 1,-2 3,-3 2,-1 4,-2 6,-3 2,-1 4,-2 6,-3 2,-1 4,-2 5,-2 0,0 3,-1 9,-2 5,-1 12,-2 20,-4 8,-1 17,-2 26,-4 10,-1 19,-2 28,-3 6,-1 17,-2 32,-2 15,-1 32,-2 51,-3 19,0 39,-1 60,-1 21,-1 41,-1 59,-1 16,0 30,0 41,1 12,0 21,1 25,2 7,2 13,3 17,5 5,1 8,3 10,4 3,2 4,3 5,5 1,1 1,2 1,2 0,1 -1,1 -1,2 -1,2 -1,4 -2,5 3,1 5,3 5,5 0,1 1,2 1,3 -1,1 -1,3 -2,5 -1,3 -1,6 -2,9 -1,3 -1,6 -2,9 0,3 0,6 1,8 1,3 1,6 2,8 0,3 -1,5 -2,6 -1,1 -2,1 -3,1 -1,0 -4,0 -8,-1 0,1 -1,2 -3,2 -1,1 -2,1 -3,1 -2,0 -7,0 -15,-1 -8,0 -19,-1 -32,-2 -12,0 -26,-1 -42,-1 -16,-1 -31,-1 -47,-1 -11,0 -21,0 -31,1 -10,0 -20,1 -29,1 -15,1 -29,2 -44,3 -15,0 -30,1 -44,2 -3,45 -6,85 -8,119 -1,33 -3,61 -4,82 17,-4 32,-6 45,-8 14,-1 26,-3 37,-4 12,-1 22,-2 32,-3 13,0 26,0 38,0 12,1 22,1 32,2 9,0 18,1 25,2 6,1 11,2 14,3 6,1 10,3 12,6 3,2 5,6 7,11 2,4 4,8 5,12 1,4 1,6 -1,8z"/>
   <path class="fil9" d="M3314 559c0,4 0,12 -1,24 -1,12 -1,27 -2,44 -1,17 -2,35 -3,56 -1,20 -2,40 -3,60 -2,20 -3,40 -3,59 -1,19 -2,35 -2,49 -1,9 -1,18 -1,29 -1,10 -1,21 -1,33 0,15 0,32 1,49 0,17 0,33 0,50 1,16 1,32 1,47 1,16 1,29 2,41 0,12 0,23 0,31 0,8 0,13 0,15 0,4 0,7 -2,9 -1,3 -3,4 -4,5 -2,1 -4,1 -6,0 -3,0 -4,-1 -6,-2 -2,-1 -3,-2 -4,-3 -1,-1 -2,-2 -2,-3 -1,0 -1,0 -2,0 0,0 -1,2 -1,4 -1,7 -3,13 -5,17 -3,4 -5,6 -8,8 -3,1 -5,1 -8,1 -2,-1 -4,-2 -4,-3 -1,-2 -2,-3 -3,-3 -1,0 -3,-1 -4,-1 -2,0 -3,0 -4,-1 -2,-1 -3,-2 -3,-5 -2,-10 -4,-22 -4,-38 -1,-15 -1,-33 -1,-52 0,-17 0,-35 0,-55 0,-19 1,-39 1,-60 0,-11 0,-23 0,-35 0,-11 -1,-23 -1,-35l0 -28c0,-24 0,-48 1,-72 2,-24 3,-47 5,-69 2,-22 4,-43 6,-63 2,-19 4,-36 5,-51 1,-15 3,-28 4,-37 0,-10 1,-15 0,-18 0,-2 0,-3 1,-4 1,-1 2,-2 3,-2 2,0 3,0 4,0 2,0 3,-1 4,-1 2,-1 4,-2 5,-1 2,0 3,1 4,1 1,1 1,2 2,3 1,1 2,2 4,2 1,0 3,-1 4,-2 1,0 2,-1 2,-2 1,-1 2,-1 3,-2 0,0 1,0 2,0 3,0 5,1 7,1 3,0 4,0 4,-1 0,-3 1,-4 2,-4 2,1 3,1 5,3 2,1 3,3 4,5 1,1 2,4 2,7z"/>
   <path class="fil10" d="M3686 963c0,31 -4,59 -13,83 -9,25 -21,46 -37,64 -15,17 -33,30 -53,40 -21,9 -42,14 -65,14 -9,0 -20,-1 -31,-3 -11,-2 -22,-6 -34,-11 -11,-5 -22,-12 -32,-20 -11,-8 -20,-18 -29,-31 -8,-12 -15,-26 -19,-42 -5,-16 -8,-35 -7,-56 0,-24 3,-47 9,-66 5,-20 13,-38 22,-54 10,-16 20,-29 32,-41 12,-11 24,-21 35,-29 12,-8 24,-13 34,-17 11,-4 21,-6 29,-7 4,0 6,0 5,1 0,2 -1,3 -3,4 -2,2 -3,3 -5,5 -1,1 0,2 2,3 2,0 4,1 5,1 1,1 3,2 4,2l4 -3c2,-2 4,-3 6,-3 2,0 3,0 5,1 1,0 3,1 3,1 1,0 2,-1 2,-3 1,-3 2,-5 3,-6 2,0 6,0 12,0 3,0 9,1 16,3 7,2 15,5 24,10 8,5 17,12 26,21 9,8 18,19 25,31 8,13 14,29 18,46 5,18 7,38 7,62zm-159 -130c-11,6 -21,15 -31,25 -10,11 -19,23 -27,37 -8,14 -15,29 -20,47 -5,17 -7,35 -7,53 0,21 2,39 5,56 4,16 9,30 17,42 7,12 15,21 25,27 10,6 22,10 35,10 12,0 23,-4 34,-10 12,-7 22,-16 31,-29 9,-13 16,-29 21,-49 6,-19 8,-41 8,-66 0,-26 -3,-48 -10,-65 -7,-17 -14,-32 -23,-42 -8,-11 -16,-19 -24,-23 -7,-5 -12,-7 -14,-7 -4,0 -7,0 -9,0 -3,0 -6,-2 -11,-6z"/>
   <path class="fil11" d="M4057 963c0,31 -4,59 -13,83 -9,25 -22,46 -37,64 -16,17 -33,30 -54,40 -20,9 -42,14 -64,14 -10,0 -20,-1 -31,-3 -11,-2 -23,-6 -34,-11 -11,-5 -22,-12 -33,-20 -10,-8 -20,-18 -28,-31 -8,-12 -15,-26 -20,-42 -5,-16 -7,-35 -7,-56 0,-24 3,-47 9,-66 6,-20 14,-38 23,-54 9,-16 20,-29 32,-41 11,-11 23,-21 35,-29 12,-8 23,-13 34,-17 11,-4 21,-6 29,-7 4,0 5,0 5,1 0,2 -2,3 -3,4 -2,2 -4,3 -5,5 -1,1 -1,2 2,3 2,0 3,1 5,1 1,1 3,2 4,2l3 -3c2,-2 5,-3 6,-3 2,0 4,0 6,1 1,0 2,1 3,1 1,0 2,-1 2,-3 0,-3 1,-5 3,-6 2,0 6,0 11,0 4,0 9,1 17,3 7,2 15,5 23,10 9,5 18,12 27,21 9,8 17,19 25,31 7,13 13,29 18,46 5,18 7,38 7,62zm-159 -130c-11,6 -21,15 -31,25 -10,11 -19,23 -27,37 -8,14 -15,29 -20,47 -5,17 -7,35 -7,53 0,21 1,39 5,56 4,16 9,30 16,42 7,12 16,21 26,27 10,6 22,10 35,10 11,0 23,-4 34,-10 11,-7 22,-16 30,-29 9,-13 16,-29 22,-49 5,-19 8,-41 8,-66 0,-26 -3,-48 -10,-65 -7,-17 -14,-32 -23,-42 -8,-11 -16,-19 -24,-23 -8,-5 -12,-7 -14,-7 -4,0 -7,0 -10,0 -2,0 -5,-2 -10,-6z"/>
   <path class="fil12" d="M4336 831c-1,9 -2,17 -3,26 -1,8 -3,16 -5,24 -3,7 -6,14 -9,20 -3,6 -7,10 -11,14 -4,3 -7,4 -9,4 -2,0 -4,0 -5,-1 -1,-2 -2,-3 -3,-4 -1,-2 -2,-3 -4,-3 -1,0 -2,0 -4,0 -2,1 -4,1 -6,0 -2,0 -4,-1 -5,-3 -2,-2 -3,-5 -4,-10 0,-6 0,-13 1,-22 1,-9 1,-18 1,-26 0,-8 0,-15 -2,-20 -2,-5 -5,-7 -9,-7 -2,0 -5,1 -10,4 -6,3 -11,10 -17,20 -7,10 -13,24 -19,43 -6,19 -11,45 -15,76 0,41 0,74 1,98 0,25 1,45 1,58 0,12 -1,21 -1,26 -1,5 -2,8 -5,9 -1,1 -4,2 -8,4 -5,1 -9,2 -14,4 -5,1 -10,2 -14,3 -4,0 -7,1 -8,0 -1,0 -3,-1 -5,-2 -2,-2 -5,-4 -7,-6 -3,-3 -5,-5 -7,-8 -2,-2 -4,-4 -4,-6 0,-3 -1,-10 0,-20 0,-11 0,-23 0,-38 0,-15 0,-31 1,-48 0,-18 0,-36 0,-53 0,-11 0,-24 1,-37 1,-14 2,-28 3,-42 1,-14 2,-28 3,-42 1,-13 2,-25 3,-36 1,-11 2,-20 3,-27 1,-7 1,-12 2,-13 0,-3 1,-3 3,-3 2,1 4,2 6,3 2,2 4,3 6,4 2,1 3,1 4,0 0,-2 2,-3 6,-1 4,2 8,4 11,7 1,1 2,2 4,3 2,1 3,3 5,4 1,2 3,4 3,7 1,2 2,6 2,10 0,4 0,11 1,19 0,8 1,18 2,29 3,-11 7,-22 12,-34 4,-11 10,-22 17,-32 6,-10 14,-18 22,-25 9,-6 20,-9 32,-9 7,0 14,1 21,4 7,2 13,6 18,11 5,5 10,12 13,19 3,7 5,16 5,25z"/>
  </g>
 </g>
</svg>
