<?xml version="1.0" encoding="UTF-8"?>
<!DOCTYPE svg PUBLIC "-//W3C//DTD SVG 1.1//EN" "http://www.w3.org/Graphics/SVG/1.1/DTD/svg11.dtd">
<!-- Creator: CorelDRAW X7 -->
<svg xmlns="http://www.w3.org/2000/svg" xml:space="preserve" width="12.1918mm" height="12.1918mm" version="1.1" style="shape-rendering:geometricPrecision; text-rendering:geometricPrecision; image-rendering:optimizeQuality; fill-rule:evenodd; clip-rule:evenodd"
viewBox="0 0 1219 1219"
 xmlns:xlink="http://www.w3.org/1999/xlink">
 <defs>
  <style type="text/css">
   <![CDATA[
    .fil2 {fill:#FEFEFE}
    .fil1 {fill:#0DA396}
    .fil0 {fill:#29BAAE}
   ]]>
  </style>
 </defs>
 <g id="Layer_x0020_1">
  <metadata id="CorelCorpID_0Corel-Layer"/>
  <g id="_794222480">
   <rect class="fil0" width="1219" height="1219" rx="251" ry="251"/>
   <g>
    <path class="fil1" d="M352 347l0 -2 5 -9c-2,4 -4,7 -5,11zm306 872l-407 0c-138,0 -251,-113 -251,-251l0 -161 261 -487c62,-129 195,-219 349,-219 213,0 387,173 387,387 0,68 -18,132 -49,188l-290 543zm228 -629l-5 12c2,-4 3,-8 5,-12zm-7 18l-4 7c2,-4 4,-8 6,-12l-2 5zm16 -46l-2 6 -2 7c1,-4 2,-8 4,-13zm3 -17l0 3c1,-5 2,-10 3,-15l-3 12zm0 3l-2 7 -1 7c1,-5 2,-9 3,-14zm6 -44l-2 14c1,-5 1,-9 2,-14zm0 -31l0 15c0,-5 0,-10 0,-15zm-3 -29l1 14c0,-5 -1,-10 -1,-14zm1 14l2 15c-1,-5 -1,-10 -2,-15zm-7 -43l3 14c-1,-5 -2,-10 -3,-14zm3 14l3 15c-1,-5 -2,-10 -3,-15zm-12 -42l5 14c-2,-5 -3,-9 -5,-14zm5 14l4 14c-1,-5 -3,-10 -4,-14zm-23 -53l7 13c-2,-5 -4,-9 -7,-13zm7 13l6 13c-2,-5 -4,-9 -6,-13zm6 13l5 13c-2,-4 -3,-9 -5,-13zm-35 -62l8 12c-3,-4 -6,-8 -8,-12zm8 12l7 12c-2,-4 -5,-8 -7,-12zm7 12l7 12c-2,-4 -4,-8 -7,-12zm-43 -56l10 10c-4,-3 -7,-7 -10,-10zm10 10l9 11c-3,-4 -6,-7 -9,-11zm9 11l9 11c-3,-4 -6,-7 -9,-11zm-51 -49l11 9c-4,-3 -7,-6 -11,-9zm11 9l11 9c-4,-3 -8,-6 -11,-9zm11 9l10 10c-4,-3 -7,-6 -10,-10zm-58 -41l12 8c-4,-3 -8,-5 -12,-8zm12 8l12 7c-4,-2 -8,-5 -12,-7zm12 7l12 8c-4,-2 -8,-5 -12,-8zm-63 -32l13 5c-4,-2 -9,-4 -13,-5zm13 5l13 6c-4,-2 -8,-4 -13,-6zm13 6l13 6c-4,-2 -8,-4 -13,-6zm-54 -20l14 4c-4,-1 -9,-3 -14,-4zm14 4l14 5c-5,-2 -9,-3 -14,-5zm-43 -10l15 3c-5,-1 -10,-2 -15,-3zm15 3l14 3c-5,-1 -9,-2 -14,-3zm-44 -6l15 1c-5,0 -10,0 -15,-1zm15 1l14 2c-4,0 -9,-1 -14,-2zm-45 -1l15 0c-5,0 -10,0 -15,0zm15 0l15 0c-5,0 -10,0 -15,0zm-36 2l5 0c-5,0 -9,1 -14,1l9 -1zm6 -1l9 0 5 -1c-5,1 -9,1 -14,1zm-23 4l7 -2c-4,1 -9,2 -13,3l6 -1zm-87 30l11 -6c-4,2 -7,4 -11,6zm13 -6l6 -3 5 -3c-4,2 -8,4 -11,6zm13 -6l11 -5 0 0c-4,2 -7,3 -11,5zm-62 35l10 -7c-3,2 -6,4 -10,7zm24 -16l10 -6c-3,2 -7,4 -10,6zm-55 43l8 -8 0 0c-3,3 -6,5 -8,8zm20 -19l5 -3 5 -4c-4,2 -7,5 -10,7zm-30 29l4 -5 4 -3c-3,3 -6,5 -8,8zm-34 45l3 -5 3 -5c-2,4 -4,7 -6,10zm14 -21l0 0c-2,3 -4,6 -6,9l6 -9zm2 -2l7 -9c-3,3 -5,6 -7,9zm8 -11l8 -9c-3,3 -5,6 -8,9zm30 -30l7 -6 2 -2 0 0c-3,2 -6,5 -9,8zm33 -26l10 -7c-3,2 -7,4 -10,7zm22 -14l0 0 0 0zm2 -1l11 -6 -11 6zm0 0l0 0 0 0zm39 -17l12 -5 0 0c-4,2 -8,3 -12,5l0 0zm14 -5l1 0 -1 0zm12 -4c-4,2 -8,3 -12,4l12 -4zm2 0l13 -3c-5,1 -9,2 -13,3zm367 285l0 15c0,-5 0,-10 0,-15zm-2 31l-1 12 0 2 0 0c0,-5 1,-9 1,-14zm-11 57l-5 13 5 -13zm-5 13c2,-4 3,-8 5,-13l0 0 -5 13zm-11 27l-6 12c2,-4 4,-8 6,-12z"/>
   </g>
   <path class="fil2" d="M610 101c213,0 387,173 387,387 0,199 -149,362 -341,385l0 89c0,26 -21,46 -46,46 -26,0 -47,-20 -47,-46l0 -89 0 -61 0 -33c15,2 31,4 47,4 162,0 294,-132 294,-295 0,-162 -132,-294 -294,-294 -163,0 -295,132 -295,294l0 0c0,26 -21,47 -46,47 -26,0 -47,-21 -47,-47l0 0c0,-214 174,-387 388,-387zm214 384c-1,-48 -17,-93 -45,-129 -10,0 -19,-4 -26,-11 -8,-7 -11,-16 -12,-26 -35,-28 -80,-44 -129,-45 58,1 105,49 105,107l0 0 0 0c58,0 105,47 107,104zm-20 -191c13,14 13,35 0,48 -14,13 -35,13 -48,0 -14,-13 -14,-34 0,-48 13,-13 34,-13 48,0zm-192 409c49,-1 94,-18 129,-46 1,-9 4,-18 12,-26 7,-7 16,-10 26,-11 27,-35 44,-80 45,-129 -2,58 -49,105 -107,105l0 0 0 0c0,58 -47,105 -105,107zm192 -21c-14,14 -35,14 -48,0 -14,-13 -14,-34 0,-48 13,-13 34,-13 48,0 13,14 13,35 0,48zm-409 -191c1,49 18,94 46,129 9,0 18,4 26,11 7,8 10,17 11,26 35,28 80,45 129,46 -58,-2 -105,-49 -105,-107l0 -1 0 0c-58,0 -105,-46 -107,-104zm21 191c-14,-13 -14,-34 0,-48 13,-13 34,-13 48,0 13,14 13,35 0,48 -14,14 -35,14 -48,0zm191 -408c-49,1 -94,18 -129,45 -1,10 -4,19 -11,26 -8,8 -17,11 -26,12 -28,35 -45,80 -46,129 2,-58 49,-105 107,-105l0 0 0 0c0,-58 47,-105 105,-107zm-191 20c13,-13 34,-13 48,0 13,14 13,35 0,48 -14,14 -35,14 -48,0 -14,-13 -14,-34 0,-48zm194 731c25,0 46,21 46,47 0,25 -21,46 -46,46 -26,0 -47,-21 -47,-46 0,-26 21,-47 47,-47z"/>
  </g>
 </g>
</svg>
