<?xml version="1.0" encoding="UTF-8"?>
<!DOCTYPE svg PUBLIC "-//W3C//DTD SVG 1.1//EN" "http://www.w3.org/Graphics/SVG/1.1/DTD/svg11.dtd">
<!-- Creator: CorelDRAW X7 -->
<svg xmlns="http://www.w3.org/2000/svg" xml:space="preserve" width="86.6986mm" height="37.5072mm" version="1.1" style="shape-rendering:geometricPrecision; text-rendering:geometricPrecision; image-rendering:optimizeQuality; fill-rule:evenodd; clip-rule:evenodd"
viewBox="0 0 8670 3751"
 xmlns:xlink="http://www.w3.org/1999/xlink">
 <defs>
  <style type="text/css">
   <![CDATA[
    .fil1 {fill:#332C2B}
    .fil4 {fill:#2618C4}
    .fil2 {fill:#408C86}
    .fil5 {fill:#61C21B}
    .fil3 {fill:#AD2DF7}
    .fil0 {fill:#CC1420}
    .fil10 {fill:#2618C4;fill-rule:nonzero}
    .fil7 {fill:#3531F7;fill-rule:nonzero}
    .fil9 {fill:#408C86;fill-rule:nonzero}
    .fil11 {fill:#61C21B;fill-rule:nonzero}
    .fil8 {fill:#AD2DF7;fill-rule:nonzero}
    .fil6 {fill:#CC1420;fill-rule:nonzero}
    .fil12 {fill:#FFD012;fill-rule:nonzero}
   ]]>
  </style>
 </defs>
 <g id="Layer_x0020_1">
  <metadata id="CorelCorpID_0Corel-Layer"/>
  <g id="_795224736">
   <path class="fil0" d="M1427 2c788,0 1427,638 1427,1427 0,730 -549,1332 -1256,1416l0 329c0,94 -77,171 -171,171 -94,0 -171,-77 -171,-171l0 -329 0 -222 0 -123c56,9 113,13 171,13 599,0 1085,-485 1085,-1084 0,-600 -486,-1085 -1085,-1085 -599,0 -1085,485 -1085,1085l0 0c0,94 -77,171 -171,171 -94,0 -171,-77 -171,-171l0 0c0,-789 639,-1427 1427,-1427z"/>
   <circle class="fil1" cx="1427" cy="3578" r="171"/>
   <path class="fil2" d="M1417 639c-180,2 -344,64 -476,167 -1,35 -15,69 -41,96 -27,26 -61,40 -96,41 -103,131 -165,296 -167,475 6,-213 180,-384 395,-384l0 0 0 0c0,-215 171,-390 385,-395z"/>
   <circle class="fil1" transform="matrix(0.224517 -0.224512 0.224517 0.224512 800.35 802.23)" r="394"/>
   <path class="fil3" d="M637 1439c2,179 64,344 167,475 35,1 69,15 96,42 26,26 40,61 41,95 131,103 296,165 476,167 -214,-5 -385,-180 -385,-394l0 -1 0 0c-215,0 -390,-171 -395,-384z"/>
   <circle class="fil1" transform="matrix(-0.224517 -0.224512 0.224517 -0.224512 800.348 2055.06)" r="394"/>
   <path class="fil4" d="M1437 2219c179,-3 344,-65 476,-167 1,-35 14,-70 41,-96 27,-27 61,-40 96,-41 102,-132 164,-297 167,-476 -6,213 -180,385 -395,385l0 0 0 0c0,215 -172,389 -385,395z"/>
   <circle class="fil1" transform="matrix(-0.224517 0.224512 -0.224517 -0.224512 2053.49 2055.34)" r="394"/>
   <path class="fil5" d="M2217 1418c-2,-179 -64,-344 -167,-476 -35,-1 -69,-14 -96,-41 -26,-26 -40,-61 -41,-95 -132,-103 -296,-165 -476,-168 214,6 385,181 385,395l0 0 0 0c215,0 389,172 395,385z"/>
   <circle class="fil1" transform="matrix(0.224517 0.224512 -0.224517 0.224512 2053.6 801.782)" r="394"/>
   <path class="fil6" d="M4841 1343c0,34 -5,68 -16,102 -10,34 -26,67 -46,99 -21,32 -45,62 -74,90 -28,29 -60,53 -95,75 -35,22 -73,39 -114,53 -41,13 -83,21 -127,24 -9,2 -17,1 -25,0 -8,-1 -15,-3 -21,-5 -5,-2 -12,-4 -20,-8 -9,-4 -14,-6 -17,-8 -3,-3 -8,-9 -14,-16 -6,-8 -11,-14 -14,-18 -2,-3 -2,-8 -2,-15 0,-7 0,-14 0,-24 0,-8 0,-16 0,-25 0,-10 0,-15 2,-16 1,-1 4,0 9,3 4,3 13,6 26,8 5,1 11,1 18,1 7,-1 13,-2 20,-3 20,-2 44,-8 71,-18 27,-10 55,-23 84,-39 28,-17 57,-36 84,-58 28,-22 53,-46 74,-72 22,-25 39,-52 53,-80 13,-28 19,-57 19,-86 0,-22 -4,-44 -13,-65 -9,-21 -23,-42 -42,-63 -11,-13 -34,-24 -69,-31 -34,-8 -75,-12 -123,-12 -40,0 -84,3 -130,10 -47,6 -93,17 -139,32 -40,13 -74,24 -101,34 -28,9 -52,18 -71,26 -20,8 -36,14 -49,19 -13,6 -24,10 -33,14 -9,4 -18,8 -26,11 -8,3 -16,6 -25,8 -8,3 -14,5 -19,5 -5,0 -9,0 -12,0 -4,-1 -8,-2 -10,-3 -2,-2 -4,-4 -7,-5 -3,-2 -5,-3 -7,-3 -3,1 -5,1 -7,2 -2,0 -4,0 -7,0 -2,-1 -4,-3 -7,-7 -3,-6 -6,-11 -7,-15 -2,-4 -3,-7 -3,-10 0,-2 0,-5 1,-7 0,-3 1,-6 2,-9 1,-4 1,-7 0,-10 0,-3 -1,-5 -1,-8 0,-2 0,-5 1,-7 1,-3 3,-6 7,-10 9,-6 22,-16 41,-30 19,-13 42,-28 70,-44 28,-17 61,-33 97,-50 36,-17 76,-33 118,-47 43,-15 89,-27 138,-37 48,-10 99,-15 152,-16 53,-2 100,4 140,17 41,13 76,30 106,50 30,21 55,45 76,72 20,27 36,54 49,81 12,27 21,53 26,79 6,25 9,47 9,65zm-607 -118c0,2 -1,13 -3,30 -1,17 -3,39 -5,66 -2,26 -4,57 -7,91 -2,34 -4,70 -7,107 -2,37 -4,75 -6,113 -3,38 -4,74 -4,109 -2,36 -2,72 -3,109 -1,38 -1,76 -1,114 0,44 1,88 3,131 2,43 6,85 11,125 3,13 2,24 -3,32 -4,7 -6,14 -6,20 0,2 1,4 3,5 2,1 2,3 1,4 -2,3 -5,4 -10,3 -4,0 -8,-2 -11,-5 -2,-2 -4,-4 -5,-6 -1,-3 -2,-5 -4,-7 -1,-2 -2,-3 -4,-3 -2,0 -4,1 -8,4 -3,3 -6,7 -10,12 -4,5 -8,11 -12,16 -4,6 -8,11 -12,16 -5,4 -8,7 -13,8 -3,1 -8,2 -12,3 -6,2 -9,0 -10,-5 -1,-2 -2,-4 -3,-4 -2,-1 -3,-2 -5,-2 -1,-1 -3,-3 -5,-4 -1,-2 -2,-5 -3,-9 -3,-10 -6,-18 -10,-23 -4,-5 -6,-11 -6,-17 -1,-10 -4,-39 -8,-87 -4,-48 -7,-114 -7,-198 0,-34 1,-70 2,-110 1,-39 2,-81 5,-125 3,-40 7,-83 11,-129 4,-45 8,-91 13,-135 4,-44 8,-85 12,-124 3,-38 6,-70 8,-94 0,-4 2,-7 4,-8 3,-1 6,-2 10,-3 4,-1 9,-1 16,-2 6,-1 14,-3 23,-7 7,-3 15,-7 25,-10 10,-4 19,-7 28,-9 8,-2 15,-2 21,-2 5,0 8,4 7,10z"/>
   <path class="fil7" d="M5140 1149c1,11 0,24 -1,39 -2,14 -4,28 -7,42 -3,14 -8,26 -14,36 -5,11 -12,18 -20,22 -19,10 -36,15 -51,15 -12,0 -22,-2 -30,-8 -9,-6 -17,-12 -25,-19 -12,-10 -22,-22 -30,-37 -8,-15 -12,-30 -12,-44 0,-12 2,-25 6,-41 4,-17 8,-32 14,-48 6,-15 12,-29 19,-42 7,-13 14,-21 20,-26 10,-8 19,-13 28,-14 9,-1 16,0 21,2 13,3 24,6 34,11 10,4 19,11 25,20 7,9 13,21 16,36 3,15 6,33 7,56zm-72 395c3,3 5,13 6,29 2,17 2,38 2,65 0,17 0,37 -1,57 0,21 -1,42 -2,64 -1,22 -1,44 -3,66 -1,22 -2,43 -2,63 -2,33 -3,64 -3,92 -1,28 -1,55 -1,81 0,34 0,65 1,93 1,29 1,52 1,71 0,21 -1,37 -2,48 -2,10 -5,16 -10,18 -5,1 -9,3 -13,7 -4,4 -7,8 -10,11 -3,4 -6,7 -10,9 -4,3 -8,4 -13,3 -3,-1 -9,-3 -16,-8 -7,-5 -14,-11 -22,-18 -8,-6 -16,-14 -23,-23 -7,-9 -12,-18 -14,-27 -1,-5 -2,-14 -3,-29 -1,-14 -2,-31 -2,-51 -1,-20 -1,-42 -2,-67 -1,-24 -1,-49 -1,-74 -1,-25 -1,-50 -1,-74 0,-24 0,-46 0,-65 0,-30 1,-61 4,-92 1,-32 4,-61 6,-88 3,-27 6,-51 8,-71 3,-21 5,-35 6,-43 2,-14 5,-25 8,-33 2,-8 5,-14 9,-17 3,-4 6,-6 9,-7 4,-1 7,-2 11,-2 7,-2 15,-2 24,-1 9,0 18,1 26,2 8,2 15,3 21,5 7,2 10,4 12,6z"/>
   <path class="fil8" d="M6281 1662c-4,3 -10,7 -15,11 -5,4 -9,10 -10,16 -1,7 -3,14 -6,22 -2,8 -7,13 -16,16 -4,1 -14,3 -31,4 -18,2 -37,3 -60,5 -22,2 -45,3 -70,5 -24,1 -46,1 -65,0 -16,0 -34,1 -56,2 -19,1 -42,3 -70,5 -28,2 -61,5 -99,10 -2,34 -3,69 -3,105 -1,36 -2,72 -2,107 -1,36 -1,69 -1,102 0,32 0,60 0,84l0 83c1,11 0,24 -5,37 -4,13 -11,22 -21,25 -10,3 -18,6 -24,10 -6,3 -13,5 -20,6 -4,1 -8,1 -14,1 -7,0 -13,0 -19,-2 -6,-1 -12,-3 -17,-7 -5,-3 -8,-8 -10,-15 -2,-7 -5,-14 -8,-21 -2,-7 -5,-16 -7,-30 -2,-13 -5,-31 -7,-54 -2,-23 -4,-54 -5,-92 -2,-31 -1,-69 1,-116 2,-47 5,-96 9,-150 4,-52 8,-107 13,-162 5,-55 10,-106 15,-154 4,-48 8,-90 12,-126 4,-36 6,-62 8,-77 1,-11 2,-24 3,-36 2,-11 3,-22 4,-35 1,-12 3,-24 4,-36 -11,0 -22,0 -33,0 -10,0 -18,0 -21,-2 -9,-1 -18,-3 -26,-7 -8,-3 -16,-7 -22,-12 -7,-4 -12,-8 -17,-13 -5,-5 -7,-10 -8,-14 0,-4 0,-7 1,-10 1,-3 3,-6 5,-8 3,-2 7,-3 12,-5 -4,-9 -4,-17 -2,-21 0,-2 2,-4 4,-4 3,-1 8,-3 14,-5 6,-2 11,-5 15,-8 1,-1 3,-3 7,-6 4,-2 8,-4 12,-7 4,-1 8,-3 12,-5 4,-2 7,-3 9,-4 1,0 7,-2 18,-4 11,-2 24,-4 40,-7 17,-2 34,-5 53,-8 20,-3 38,-5 56,-7 12,-1 33,-3 63,-4 30,-2 64,-3 102,-5 38,-1 79,-2 121,-3 41,-1 81,-1 117,-1 32,0 60,0 83,1 24,1 41,2 50,5 14,3 25,6 34,9 8,3 15,6 20,9 4,3 7,6 9,9 2,2 2,4 2,5 0,1 -1,2 -1,4 -2,3 -3,6 -5,9 6,3 9,7 11,10 0,3 1,5 1,6 -1,2 -2,6 -3,11 -2,6 -3,11 -4,18 -2,6 -3,12 -4,18 0,6 0,11 1,15 2,7 3,13 4,17 0,5 -1,9 -4,12 -1,1 -3,2 -6,2 -2,0 -8,0 -15,-2 0,2 -2,3 -7,4 -2,1 -4,1 -7,1 -3,0 -12,0 -29,-1 -16,-1 -37,-2 -63,-4 -25,-1 -53,-2 -84,-3 -32,-1 -63,-1 -95,-1 -21,0 -41,0 -62,1 -20,1 -39,2 -58,3 -29,2 -58,3 -88,5 -30,1 -60,3 -88,4 -6,91 -11,170 -15,238 -3,67 -6,121 -8,163 33,-6 63,-11 90,-14 28,-3 52,-6 73,-9 24,-2 46,-4 65,-5 26,-1 51,-1 75,0 24,1 45,2 64,3 19,1 36,2 50,4 13,2 23,4 29,5 11,3 19,7 24,13 5,5 10,12 14,22 4,9 7,17 9,24 2,8 2,13 -2,16z"/>
   <path class="fil9" d="M6627 1122c0,8 0,25 -2,49 -1,24 -2,53 -4,87 -2,34 -4,71 -6,111 -2,41 -4,81 -6,121 -3,41 -5,80 -7,118 -1,37 -3,71 -3,99 -1,17 -2,36 -2,56 -1,21 -1,43 -1,67 0,31 0,64 1,97 0,35 1,68 1,101 0,33 1,65 2,95 1,30 2,58 2,82 1,24 2,44 2,60 0,17 0,27 0,31 0,8 -1,15 -4,19 -2,4 -6,7 -9,9 -4,1 -8,2 -12,1 -5,-1 -8,-3 -11,-4 -4,-2 -6,-4 -8,-7 -3,-2 -4,-4 -5,-5 -2,-1 -2,-1 -3,-1 -1,1 -2,3 -3,7 -2,16 -5,27 -10,35 -5,8 -10,13 -16,16 -5,2 -11,3 -15,2 -5,-2 -8,-4 -9,-7 -1,-2 -3,-4 -6,-5 -2,0 -5,-1 -8,-1 -3,-1 -6,-2 -9,-3 -2,-1 -4,-5 -4,-9 -5,-20 -8,-46 -9,-77 -2,-31 -2,-66 -2,-105 0,-33 0,-69 1,-108 0,-39 1,-79 1,-120 0,-23 0,-47 0,-70 0,-23 -1,-47 -2,-71l0 -56c0,-48 1,-96 3,-144 3,-48 6,-94 9,-138 4,-44 8,-86 12,-125 4,-39 7,-73 11,-103 2,-31 5,-55 6,-74 2,-19 3,-30 2,-35 0,-4 0,-7 1,-9 2,-2 4,-3 7,-3 3,0 5,-1 8,-1 3,0 6,-1 8,-2 4,-3 8,-3 10,-3 3,1 5,3 7,4 2,2 3,4 5,6 1,2 3,3 6,3 4,0 7,-1 9,-3 2,-1 4,-3 5,-4 2,-2 3,-3 5,-4 1,-1 3,-2 5,-1 5,1 10,2 14,2 4,0 7,0 7,-2 1,-5 3,-7 5,-7 2,1 5,2 9,5 3,3 6,6 9,10 2,3 3,7 3,14z"/>
   <path class="fil10" d="M7372 1930c0,62 -9,117 -27,167 -18,49 -42,92 -73,126 -31,35 -67,62 -108,81 -40,19 -84,28 -129,28 -19,0 -39,-2 -62,-6 -22,-5 -45,-12 -67,-22 -23,-10 -44,-23 -65,-40 -22,-17 -41,-37 -57,-61 -17,-24 -30,-52 -39,-85 -10,-32 -15,-70 -14,-112 0,-49 6,-93 18,-132 11,-40 26,-76 45,-108 19,-31 40,-58 63,-81 24,-23 48,-43 71,-58 24,-16 46,-28 68,-35 22,-8 41,-12 57,-13 8,-1 12,0 11,2 -1,2 -3,5 -7,8 -3,3 -7,6 -9,9 -3,3 -2,5 3,5 4,2 8,3 10,4 3,1 6,2 8,4l8 -8c4,-3 8,-4 12,-4 3,0 7,0 10,1 3,1 5,2 7,2 2,0 3,-2 3,-6 2,-6 4,-10 7,-11 3,-1 11,-1 23,-1 7,0 17,2 32,6 14,4 30,11 48,21 17,10 35,24 53,40 18,17 34,38 49,64 15,26 27,56 37,92 10,35 14,76 14,123zm-319 -260c-21,13 -41,30 -61,51 -20,21 -38,46 -55,73 -16,28 -29,59 -39,93 -10,34 -15,70 -15,108 0,41 4,78 11,111 7,33 18,61 32,84 15,24 32,41 52,54 20,13 43,19 69,19 23,0 46,-6 69,-19 23,-13 43,-33 61,-59 17,-26 32,-58 43,-96 10,-38 16,-83 16,-134 0,-51 -7,-94 -20,-129 -14,-34 -29,-63 -46,-84 -17,-22 -33,-37 -48,-46 -16,-10 -25,-14 -29,-14 -8,0 -14,0 -19,0 -4,0 -11,-4 -21,-12z"/>
   <path class="fil11" d="M8113 1930c0,62 -8,117 -27,167 -18,49 -42,92 -73,126 -31,35 -67,62 -107,81 -41,19 -84,28 -130,28 -18,0 -39,-2 -62,-6 -22,-5 -44,-12 -67,-22 -22,-10 -44,-23 -65,-40 -22,-17 -40,-37 -57,-61 -16,-24 -29,-52 -39,-85 -10,-32 -15,-70 -14,-112 0,-49 6,-93 18,-132 12,-40 27,-76 45,-108 19,-31 40,-58 63,-81 24,-23 48,-43 71,-58 24,-16 47,-28 68,-35 22,-8 41,-12 57,-13 8,-1 12,0 11,2 -1,2 -3,5 -7,8 -3,3 -6,6 -9,9 -2,3 -1,5 3,5 4,2 8,3 10,4 3,1 6,2 9,4l7 -8c4,-3 8,-4 12,-4 4,0 7,0 10,1 3,1 5,2 7,2 2,0 3,-2 4,-6 1,-6 3,-10 6,-11 4,-1 11,-1 23,-1 7,0 18,2 32,6 15,4 30,11 48,21 17,10 35,24 53,40 18,17 34,38 50,64 15,26 27,56 36,92 10,35 14,76 14,123zm-319 -260c-21,13 -41,30 -61,51 -20,21 -38,46 -54,73 -16,28 -30,59 -40,93 -10,34 -15,70 -15,108 0,41 4,78 11,111 8,33 18,61 33,84 14,24 31,41 51,54 21,13 44,19 70,19 23,0 46,-6 68,-19 23,-13 43,-33 61,-59 17,-26 32,-58 43,-96 11,-38 16,-83 16,-134 0,-51 -7,-94 -20,-129 -14,-34 -29,-63 -46,-84 -17,-22 -33,-37 -48,-46 -15,-10 -25,-14 -28,-14 -9,0 -15,0 -19,0 -5,0 -12,-4 -22,-12z"/>
   <path class="fil12" d="M8670 1667c-1,17 -2,34 -5,51 -3,17 -6,32 -11,48 -5,15 -10,28 -17,40 -7,12 -15,21 -23,28 -7,6 -13,9 -17,9 -4,0 -7,-1 -10,-3 -3,-3 -5,-6 -7,-9 -1,-2 -4,-4 -7,-5 -2,0 -5,0 -9,1 -4,0 -8,1 -11,0 -4,0 -8,-3 -11,-6 -3,-4 -5,-11 -7,-21 -1,-11 0,-26 2,-44 2,-18 3,-36 3,-53 0,-15 -2,-28 -5,-38 -3,-11 -9,-16 -17,-16 -5,0 -12,3 -22,10 -10,6 -22,19 -34,39 -12,20 -25,49 -37,87 -13,38 -23,89 -30,152 0,81 0,147 2,196 1,50 1,88 1,116 0,24 0,40 -1,50 -2,10 -5,17 -10,20 -2,2 -8,4 -17,7 -8,2 -17,5 -27,7 -10,2 -19,4 -28,6 -9,2 -14,3 -17,2 -1,-1 -5,-2 -10,-6 -4,-3 -9,-7 -14,-12 -5,-4 -10,-9 -14,-14 -4,-5 -6,-10 -7,-13 -1,-6 -1,-19 -1,-40 0,-21 1,-47 1,-76 0,-29 0,-62 1,-97 1,-35 1,-70 1,-105 0,-22 1,-47 2,-74 2,-28 3,-56 5,-84 3,-28 5,-56 7,-83 3,-27 5,-51 7,-73 2,-22 3,-40 5,-54 1,-14 3,-23 3,-26 1,-5 3,-7 7,-5 3,1 8,3 12,6 4,3 8,5 12,8 4,2 6,2 7,0 1,-6 6,-6 14,-3 7,4 14,9 21,13 2,3 5,6 8,8 3,2 6,5 9,8 3,3 6,7 8,12 2,6 3,13 3,22 0,8 1,20 2,37 1,16 2,36 4,58 7,-21 15,-43 24,-67 9,-24 20,-45 33,-65 13,-20 28,-36 46,-49 18,-13 39,-19 63,-19 14,0 28,2 41,7 14,6 26,14 37,24 11,10 19,23 26,38 6,14 9,31 9,50z"/>
  </g>
 </g>
</svg>
