<?xml version="1.0" encoding="UTF-8"?>
<!DOCTYPE svg PUBLIC "-//W3C//DTD SVG 1.1//EN" "http://www.w3.org/Graphics/SVG/1.1/DTD/svg11.dtd">
<!-- Creator: CorelDRAW X7 -->
<svg xmlns="http://www.w3.org/2000/svg" xml:space="preserve" width="15.2398mm" height="15.2398mm" version="1.1" style="shape-rendering:geometricPrecision; text-rendering:geometricPrecision; image-rendering:optimizeQuality; fill-rule:evenodd; clip-rule:evenodd"
viewBox="0 0 1524 1524"
 xmlns:xlink="http://www.w3.org/1999/xlink">
 <defs>
  <style type="text/css">
   <![CDATA[
    .fil2 {fill:#FEFEFE}
    .fil1 {fill:#0DA396}
    .fil0 {fill:#29BAAE}
   ]]>
  </style>
 </defs>
 <g id="Layer_x0020_1">
  <metadata id="CorelCorpID_0Corel-Layer"/>
  <g id="_681051296">
   <rect class="fil0" width="1524" height="1524" rx="314" ry="314"/>
   <g>
    <path class="fil1" d="M439 433l1 -1 7 -12c-3,5 -5,9 -8,13zm383 1091l-508 0c-173,0 -314,-141 -314,-314l0 -201 326 -608c78,-163 244,-275 436,-275 267,0 484,217 484,484 0,86 -22,166 -61,235l-363 679zm285 -787l-6 16c2,-5 5,-10 6,-16zm-9 23l-4 9c2,-5 5,-10 7,-15l-3 6zm20 -57l-2 8 -2 8c1,-5 3,-11 4,-16zm5 -21l0 2c1,-6 2,-11 3,-17l-3 15zm-1 3l-2 8 -1 9c1,-6 2,-11 3,-17zm7 -55l-1 18c1,-6 1,-12 1,-18zm1 -39l0 19c0,-6 0,-12 0,-19zm-4 -37l2 19c-1,-6 -1,-13 -2,-19zm2 19l2 18c-1,-6 -1,-12 -2,-18zm-10 -55l5 18c-2,-6 -3,-12 -5,-18zm5 18l3 18c-1,-6 -2,-12 -3,-18zm-15 -52l5 17c-1,-6 -3,-11 -5,-17zm5 17l5 17c-1,-5 -3,-11 -5,-17zm-27 -66l8 16c-3,-5 -6,-11 -8,-16zm8 16l7 16c-2,-5 -5,-11 -7,-16zm7 16l7 17c-2,-6 -5,-11 -7,-17zm-44 -77l10 15c-3,-5 -7,-10 -10,-15zm10 15l10 15c-3,-5 -7,-10 -10,-15zm10 15l9 15c-3,-5 -6,-10 -9,-15zm-55 -70l12 13c-4,-4 -8,-9 -12,-13zm12 13l12 13c-4,-4 -8,-9 -12,-13zm12 13l11 14c-4,-4 -7,-9 -11,-14zm-64 -60l14 10c-4,-3 -9,-7 -14,-10zm14 10l13 12c-4,-4 -8,-8 -13,-12zm13 12l13 12c-4,-4 -8,-8 -13,-12zm-72 -51l16 9c-5,-3 -10,-6 -16,-9zm16 9l15 9c-5,-3 -10,-6 -15,-9zm15 9l14 11c-5,-4 -9,-7 -14,-11zm-79 -40l16 6c-5,-2 -11,-4 -16,-6zm16 6l17 8c-6,-3 -11,-5 -17,-8zm17 8l15 8c-5,-3 -10,-6 -15,-8zm-68 -25l17 5c-5,-2 -11,-3 -17,-5zm17 5l18 6c-6,-2 -12,-4 -18,-6zm-53 -12l18 3c-6,-1 -12,-2 -18,-3zm18 3l18 4c-6,-1 -12,-3 -18,-4zm-55 -7l19 1c-7,0 -13,-1 -19,-1zm19 1l18 3c-6,-1 -12,-2 -18,-3zm-57 -1l19 -1c-6,0 -13,1 -19,1zm19 -1l19 1c-6,0 -13,-1 -19,-1zm-45 3l7 -1c-6,1 -12,2 -18,3l11 -2zm8 -1l11 -1 7 0c-6,0 -12,1 -18,1zm-29 4l9 -1c-6,1 -11,2 -17,3l8 -2zm-108 38l13 -7c-4,3 -9,5 -13,7zm15 -8l8 -3 7 -3c-5,2 -10,4 -15,6zm17 -7l14 -6 0 0c-5,2 -10,4 -14,6zm-77 44l12 -9c-4,3 -8,6 -12,9zm29 -20l13 -7c-4,2 -8,4 -13,7zm-69 54l11 -10 0 0c-4,3 -7,6 -11,10zm26 -24l6 -4 6 -5c-4,3 -8,6 -12,9zm-38 37l6 -6 4 -5c-4,4 -7,7 -10,11zm-43 56l5 -7 3 -5c-2,4 -5,8 -8,12zm18 -27l0 0c-2,4 -5,8 -8,12l8 -12zm2 -2l9 -12c-3,4 -6,8 -9,12zm11 -14l10 -11c-3,4 -7,7 -10,11zm37 -38l8 -8 3 -2 0 0c-4,3 -8,7 -11,10zm41 -32l13 -9c-4,3 -8,6 -13,9zm29 -18l-1 1 1 -1zm1 -1l14 -7 -14 7zm1 0l-1 0 1 0zm48 -22l15 -5 0 0c-5,2 -10,4 -15,5l0 0zm17 -5l2 -1 -2 1zm16 -5c-5,2 -11,3 -16,5l16 -5zm2 0l16 -4c-6,1 -11,2 -16,4zm459 356l0 19c0,-6 0,-12 0,-19zm-2 38l-2 16 0 2 0 0c1,-6 1,-12 2,-18zm-15 72l-5 17 5 -17zm-5 17c2,-6 4,-11 5,-17l0 0 -5 17zm-15 33l-7 15c2,-4 5,-9 7,-15z"/>
   </g>
   <path class="fil2" d="M762 126c267,0 484,217 484,484 0,248 -186,452 -426,481l0 111c0,32 -26,58 -58,58 -32,0 -58,-26 -58,-58l0 -111 0 -75 0 -42c19,3 38,4 58,4 203,0 368,-164 368,-368 0,-203 -165,-368 -368,-368 -203,0 -368,165 -368,368l0 0c0,32 -26,58 -58,58 -32,0 -58,-26 -58,-58l0 0c0,-267 217,-484 484,-484zm268 481c-1,-61 -22,-117 -57,-161 -12,-1 -23,-5 -32,-14 -9,-9 -14,-21 -14,-33 -45,-35 -101,-56 -161,-57 72,2 130,62 130,134l0 0 0 0c73,0 132,59 134,131zm-25 -239c16,16 16,43 0,60 -17,16 -44,16 -60,0 -17,-17 -17,-44 0,-60 16,-17 43,-17 60,0zm-240 510c61,0 117,-21 162,-56 0,-12 5,-24 14,-33 9,-9 20,-13 32,-14 35,-44 56,-100 57,-161 -2,72 -61,130 -134,130l0 0 0 1c0,72 -58,132 -131,133zm239 -25c-16,17 -43,17 -59,0 -17,-17 -17,-43 0,-60 16,-16 43,-16 59,0 17,17 17,43 0,60zm-510 -239c1,61 22,117 57,161 11,1 23,5 32,14 9,9 14,21 14,33 45,35 101,56 161,56 -72,-2 -130,-61 -130,-134l0 0 0 0c-73,0 -132,-58 -134,-130zm25 239c-16,-17 -16,-43 0,-60 17,-17 44,-17 60,0 17,17 17,43 0,60 -16,16 -43,16 -60,0zm240 -510c-61,0 -117,21 -162,56 0,12 -5,24 -14,33 -9,9 -21,13 -32,14 -35,44 -56,100 -57,161 2,-72 61,-130 134,-130l0 0 0 -1c0,-72 58,-132 131,-133zm-240 25c17,-17 44,-17 60,0 17,17 17,43 0,60 -16,16 -43,16 -60,0 -16,-17 -16,-43 0,-60zm243 914c32,0 58,26 58,58 0,32 -26,58 -58,58 -32,0 -58,-26 -58,-58 0,-32 26,-58 58,-58z"/>
  </g>
 </g>
</svg>
