<?xml version="1.0" encoding="UTF-8"?>
<!DOCTYPE svg PUBLIC "-//W3C//DTD SVG 1.1//EN" "http://www.w3.org/Graphics/SVG/1.1/DTD/svg11.dtd">
<!-- Creator: CorelDRAW X7 -->
<svg xmlns="http://www.w3.org/2000/svg" xml:space="preserve" width="14.1392mm" height="14.1392mm" version="1.1" style="shape-rendering:geometricPrecision; text-rendering:geometricPrecision; image-rendering:optimizeQuality; fill-rule:evenodd; clip-rule:evenodd"
viewBox="0 0 1414 1414"
 xmlns:xlink="http://www.w3.org/1999/xlink">
 <defs>
  <style type="text/css">
   <![CDATA[
    .fil2 {fill:#FEFEFE}
    .fil1 {fill:#0DA396}
    .fil0 {fill:#29BAAE}
   ]]>
  </style>
 </defs>
 <g id="Layer_x0020_1">
  <metadata id="CorelCorpID_0Corel-Layer"/>
  <g id="_921256160">
   <rect class="fil0" width="1414" height="1414" rx="291" ry="291"/>
   <g>
    <path class="fil1" d="M408 402l1 -2 6 -10c-3,4 -5,8 -7,12zm355 1012l-472 0c-160,0 -291,-131 -291,-291l0 -187 302 -564c73,-151 227,-255 405,-255 248,0 449,201 449,449 0,79 -20,154 -56,218l-337 630zm265 -730l-6 15c2,-5 4,-10 6,-15zm-9 21l-4 9c2,-5 4,-9 6,-14l-2 5zm18 -53l-2 7 -2 8c2,-5 3,-10 4,-15zm5 -19l-1 2c2,-6 3,-11 3,-17l-2 15zm-1 2l-1 8 -2 8c1,-5 2,-10 3,-16zm7 -51l-1 17c0,-6 1,-11 1,-17zm0 -35l0 17c0,-6 0,-11 0,-17zm-4 -35l3 17c-1,-5 -2,-11 -3,-17zm3 17l1 18c0,-6 -1,-12 -1,-18zm-9 -50l3 17c-1,-6 -2,-12 -3,-17zm3 17l3 16c0,-5 -1,-11 -3,-16zm-13 -49l5 16c-2,-6 -3,-11 -5,-16zm5 16l5 16c-2,-5 -3,-11 -5,-16zm-26 -61l8 14c-3,-5 -5,-10 -8,-14zm8 14l7 15c-3,-5 -5,-10 -7,-15zm7 15l6 16c-2,-5 -4,-10 -6,-16zm-41 -71l9 13c-3,-4 -6,-9 -9,-13zm9 13l9 14c-3,-4 -6,-9 -9,-14zm9 14l8 15c-2,-5 -5,-10 -8,-15zm-51 -64l12 12c-4,-4 -8,-8 -12,-12zm12 12l10 12c-3,-4 -7,-8 -10,-12zm10 12l11 13c-4,-4 -7,-9 -11,-13zm-59 -56l13 10c-4,-4 -8,-7 -13,-10zm13 10l13 11c-5,-4 -9,-8 -13,-11zm13 11l11 11c-3,-4 -7,-8 -11,-11zm-67 -48l14 8c-5,-2 -9,-5 -14,-8zm14 8l14 9c-5,-3 -9,-6 -14,-9zm14 9l13 10c-4,-4 -9,-7 -13,-10zm-74 -37l16 6c-5,-2 -10,-4 -16,-6zm16 6l15 7c-5,-3 -10,-5 -15,-7zm15 7l15 7c-5,-2 -10,-5 -15,-7zm-63 -23l16 4c-5,-1 -10,-3 -16,-4zm16 4l16 6c-5,-2 -10,-4 -16,-6zm-49 -11l17 3c-6,-1 -11,-2 -17,-3zm17 3l16 4c-5,-2 -11,-3 -16,-4zm-51 -7l17 2c-6,-1 -12,-1 -17,-2zm17 2l17 2c-6,-1 -11,-2 -17,-2zm-53 -2l18 0c-6,0 -12,0 -18,0zm18 0l18 0c-6,0 -12,0 -18,0zm-42 3l6 -1c-5,0 -10,1 -16,2l10 -1zm7 -1l11 -1 6 -1c-5,1 -11,1 -17,2zm-26 3l8 -1c-5,1 -10,2 -15,3l7 -2zm-101 36l13 -7c-4,2 -9,4 -13,7zm15 -8l7 -3 6 -3c-4,2 -9,4 -13,6zm15 -7l13 -5 0 0c-4,2 -9,4 -13,5zm-71 41l11 -8c-4,3 -8,5 -11,8zm27 -18l12 -7c-4,2 -8,4 -12,7zm-64 50l9 -9 1 -1c-4,3 -7,7 -10,10zm24 -22l5 -4 6 -5c-4,3 -8,6 -11,9zm-36 33l6 -5 4 -4c-3,3 -7,6 -10,9zm-39 53l4 -7 3 -5c-2,4 -5,8 -7,12zm17 -25l0 0c-3,3 -5,7 -8,11l8 -11zm2 -2l8 -11c-3,3 -6,7 -8,11zm10 -13l8 -10c-3,3 -5,6 -8,10zm34 -35l8 -7 2 -2 0 0c-4,3 -7,6 -10,9zm38 -30l12 -8c-4,2 -8,5 -12,8zm26 -16l0 0 0 0zm2 -1l13 -7 -13 7zm0 0l0 0 0 0zm45 -21l14 -4 0 0c-4,1 -9,3 -14,4l0 0zm16 -5l2 0 -2 0zm15 -4c-5,1 -10,3 -15,4l15 -4zm1 0l15 -4c-5,1 -10,2 -15,4zm426 330l0 18c0,-6 0,-12 0,-18zm-1 36l-2 14 -1 2 0 0c1,-5 2,-11 3,-16zm-14 66l-5 16 5 -16zm-5 15c2,-5 3,-10 5,-15l0 0 -5 15zm-14 32l-7 14c3,-5 5,-9 7,-14z"/>
   </g>
   <path class="fil2" d="M707 117c248,0 449,201 449,449 0,230 -173,420 -395,446l0 104c0,29 -24,53 -54,53 -30,0 -54,-24 -54,-53l0 -104 0 -70 0 -38c18,2 36,4 54,4 189,0 341,-153 341,-342 0,-188 -152,-341 -341,-341 -189,0 -341,153 -341,341l0 0c0,30 -25,54 -54,54 -30,0 -54,-24 -54,-54l0 0c0,-248 201,-449 449,-449zm249 446c-1,-56 -21,-108 -53,-150 -11,0 -22,-4 -30,-13 -8,-8 -13,-19 -13,-30 -41,-32 -93,-52 -150,-52 67,1 121,56 121,124l0 0 0 0c68,0 123,54 125,121zm-24 -222c15,16 15,41 0,56 -15,15 -40,15 -56,0 -15,-15 -15,-40 0,-56 16,-15 41,-15 56,0zm-222 474c57,-1 108,-20 150,-53 0,-11 4,-21 13,-30 8,-8 19,-12 30,-13 32,-41 52,-93 53,-149 -2,67 -57,121 -125,121l0 0 0 0c0,67 -54,122 -121,124zm222 -24c-15,16 -40,16 -56,0 -15,-15 -15,-40 0,-55 16,-16 41,-16 56,0 15,15 15,40 0,55zm-474 -221c1,56 21,108 53,149 11,1 22,5 30,13 8,9 13,19 13,30 41,33 93,52 150,53 -67,-2 -121,-57 -121,-124l0 0 0 0c-68,0 -123,-54 -125,-121zm24 221c-15,-15 -15,-40 0,-55 15,-16 40,-16 56,0 15,15 15,40 0,55 -16,16 -41,16 -56,0zm222 -473c-57,1 -109,20 -150,52 0,11 -5,22 -13,31 -8,8 -19,12 -30,12 -32,42 -52,94 -53,150 2,-67 57,-121 125,-121l0 0 0 0c0,-68 54,-122 121,-124zm-222 23c15,-15 40,-15 56,0 15,16 15,41 0,56 -16,15 -41,15 -56,0 -15,-15 -15,-40 0,-56zm225 848c30,0 54,24 54,54 0,30 -24,54 -54,54 -30,0 -54,-24 -54,-54 0,-30 24,-54 54,-54z"/>
  </g>
 </g>
</svg>
