<?xml version="1.0" encoding="UTF-8"?>
<!DOCTYPE svg PUBLIC "-//W3C//DTD SVG 1.1//EN" "http://www.w3.org/Graphics/SVG/1.1/DTD/svg11.dtd">
<!-- Creator: CorelDRAW X7 -->
<svg xmlns="http://www.w3.org/2000/svg" xml:space="preserve" width="43.3492mm" height="43.3492mm" version="1.1" style="shape-rendering:geometricPrecision; text-rendering:geometricPrecision; image-rendering:optimizeQuality; fill-rule:evenodd; clip-rule:evenodd"
viewBox="0 0 4335 4335"
 xmlns:xlink="http://www.w3.org/1999/xlink">
 <defs>
  <style type="text/css">
   <![CDATA[
    .fil2 {fill:#FEFEFE}
    .fil1 {fill:#0DA396}
    .fil0 {fill:#29BAAE}
   ]]>
  </style>
 </defs>
 <g id="Layer_x0020_1">
  <metadata id="CorelCorpID_0Corel-Layer"/>
  <g id="_681050752">
   <rect class="fil0" width="4335" height="4335" rx="892" ry="892"/>
   <g>
    <path class="fil1" d="M1250 1233l3 -5 18 -32c-7,12 -14,24 -21,37zm1089 3102l-1447 0c-491,0 -892,-401 -892,-892l0 -572 926 -1732c223,-461 695,-780 1241,-780 761,0 1377,617 1377,1377 0,243 -62,470 -172,668l-1033 1931zm811 -2238l-17 45c6,-15 12,-30 17,-45zm-26 64l-12 27c7,-14 13,-28 19,-42l-7 15zm57 -162l-6 22 -7 25c4,-15 9,-31 13,-47zm13 -60l-1 8c3,-17 6,-34 9,-51l-8 43zm-1 9l-6 24 -5 25c4,-16 7,-32 11,-49zm20 -156l-4 50c2,-17 3,-33 4,-50zm0 -110l1 54c0,-18 0,-36 -1,-54zm-11 -105l7 52c-2,-17 -4,-35 -7,-52zm7 52l4 53c-1,-17 -2,-35 -4,-53zm-28 -154l12 50c-4,-17 -7,-34 -12,-50zm12 50l9 52c-3,-17 -6,-35 -9,-52zm-42 -149l16 49c-5,-16 -10,-33 -16,-49zm16 49l14 50c-4,-17 -9,-34 -14,-50zm-79 -188l23 46c-7,-16 -15,-31 -23,-46zm23 46l21 46c-7,-16 -14,-31 -21,-46zm21 46l19 47c-6,-16 -12,-31 -19,-47zm-126 -219l29 41c-9,-14 -19,-28 -29,-41zm29 41l28 43c-9,-15 -18,-29 -28,-43zm28 43l25 43c-8,-14 -17,-29 -25,-43zm-155 -198l34 37c-11,-13 -23,-25 -34,-37zm34 37l33 38c-11,-13 -21,-26 -33,-38zm33 38l31 39c-10,-13 -20,-27 -31,-39zm-181 -173l39 31c-13,-11 -26,-21 -39,-31zm39 31l38 33c-12,-12 -25,-23 -38,-33zm38 33l37 34c-12,-12 -24,-23 -37,-34zm-205 -146l44 25c-14,-9 -29,-17 -44,-25zm44 25l43 27c-14,-9 -28,-18 -43,-27zm43 27l41 30c-14,-11 -27,-20 -41,-30zm-226 -115l48 19c-16,-7 -32,-13 -48,-19zm48 19l46 21c-15,-8 -30,-15 -46,-21zm46 21l45 23c-14,-8 -29,-16 -45,-23zm-192 -70l50 14c-17,-5 -33,-10 -50,-14zm50 14l48 16c-16,-6 -32,-11 -48,-16zm-152 -35l51 9c-17,-4 -34,-7 -51,-9zm51 9l51 12c-17,-5 -34,-9 -51,-12zm-157 -20l53 4c-17,-2 -35,-3 -53,-4zm53 4l53 7c-17,-3 -35,-5 -53,-7zm-160 -4l53 -1c-17,0 -35,0 -53,1zm53 -1l54 1c-18,-1 -35,-1 -54,-1zm-127 8l19 -3c-17,2 -33,4 -50,7l31 -4zm21 -3l33 -3 19 -1c-17,1 -34,2 -52,4zm-81 12l25 -5c-16,3 -32,5 -47,9l22 -4zm-309 108l40 -21c-14,7 -27,14 -40,21zm45 -23l23 -11 18 -8c-14,6 -27,12 -41,19zm46 -21l41 -16 1 -1c-14,6 -28,11 -42,17zm-218 124l35 -24c-12,8 -23,16 -35,24zm84 -56l37 -21c-12,7 -25,14 -37,21zm-197 153l30 -28 0 0c-10,9 -20,19 -30,28zm74 -66l17 -13 16 -13c-11,8 -22,17 -33,26zm-109 103l17 -18 12 -12c-10,10 -19,19 -29,30zm-120 159l13 -20 9 -14c-8,11 -15,23 -22,34zm51 -75l0 0c-8,11 -16,22 -24,33l24 -33zm5 -7l26 -33c-9,11 -17,22 -26,33zm31 -39l27 -32c-9,11 -18,21 -27,32zm104 -109l25 -21 7 -6 0 0c-11,9 -21,18 -32,27zm119 -92l35 -23c-12,8 -24,15 -35,23zm80 -48l-1 0 1 0zm5 -3l40 -21 -40 21zm0 0l0 0 0 0zm139 -63l43 -14 0 0c-14,4 -29,9 -43,14l0 0zm48 -16l6 -2 -6 2zm45 -13c-15,4 -30,9 -45,13l45 -13zm5 -1l46 -11c-16,4 -31,7 -46,11zm1306 1014l-1 53c1,-17 1,-35 1,-53zm-5 108l-6 45 -1 6 0 0c3,-17 5,-34 7,-51zm-42 205l-16 47 16 -47zm-16 46c6,-15 11,-31 16,-46l0 0 -16 46zm-41 96l-22 43c8,-14 15,-28 22,-43z"/>
   </g>
   <path class="fil2" d="M2167 359c761,0 1377,617 1377,1377 0,705 -529,1286 -1212,1367l0 317c0,91 -73,165 -165,165 -91,0 -164,-74 -164,-165l0 -317 0 -214 0 -119c53,9 108,13 164,13 579,0 1047,-469 1047,-1047 0,-578 -468,-1046 -1047,-1046 -578,0 -1046,468 -1046,1046l0 0c0,91 -74,165 -165,165 -91,0 -165,-74 -165,-165l0 0c0,-760 616,-1377 1376,-1377zm763 1367c-3,-173 -62,-332 -162,-459 -33,-1 -66,-14 -92,-39 -25,-26 -39,-59 -40,-93 -126,-99 -286,-159 -459,-161 206,5 372,174 372,381l0 0 0 0c207,0 375,165 381,371zm-73 -680c47,47 47,124 0,171 -47,47 -123,47 -170,0 -47,-47 -47,-124 0,-171 47,-47 123,-47 170,0zm-680 1453c173,-3 332,-62 459,-162 1,-33 14,-66 40,-92 26,-25 59,-39 92,-40 99,-126 159,-286 162,-459 -6,206 -174,372 -381,372l-1 0 0 0c0,207 -165,375 -371,381zm680 -73c-47,47 -123,47 -170,0 -47,-47 -47,-123 0,-170 47,-47 123,-47 170,0 47,47 47,123 0,170zm-1452 -680c2,173 62,332 161,459 34,1 67,14 93,40 25,25 39,59 40,92 126,99 285,159 458,161 -205,-5 -371,-173 -371,-380l0 -1 0 0c-207,0 -375,-165 -381,-371zm73 680c-48,-47 -48,-123 0,-170 47,-47 123,-47 170,0 47,47 47,123 0,170 -47,47 -123,47 -170,0zm680 -1452c-173,3 -333,62 -459,162 -1,33 -15,66 -40,92 -26,26 -59,39 -93,40 -99,127 -159,286 -161,459 6,-206 174,-371 381,-371l0 0 0 -1c0,-207 166,-375 372,-381zm-680 73c47,-47 123,-47 170,0 47,47 47,123 0,170 -47,47 -123,47 -170,0 -48,-47 -48,-123 0,-170zm689 2599c92,0 165,74 165,165 0,91 -73,164 -165,164 -91,0 -164,-73 -164,-164 0,-91 73,-165 164,-165z"/>
  </g>
 </g>
</svg>
