<?xml version="1.0" encoding="UTF-8"?>
<!DOCTYPE svg PUBLIC "-//W3C//DTD SVG 1.1//EN" "http://www.w3.org/Graphics/SVG/1.1/DTD/svg11.dtd">
<!-- Creator: CorelDRAW X7 -->
<svg xmlns="http://www.w3.org/2000/svg" xml:space="preserve" width="6.4346mm" height="6.4346mm" version="1.1" style="shape-rendering:geometricPrecision; text-rendering:geometricPrecision; image-rendering:optimizeQuality; fill-rule:evenodd; clip-rule:evenodd"
viewBox="0 0 643 643"
 xmlns:xlink="http://www.w3.org/1999/xlink">
 <defs>
  <style type="text/css">
   <![CDATA[
    .fil2 {fill:#FEFEFE}
    .fil1 {fill:#0DA396}
    .fil0 {fill:#29BAAE}
   ]]>
  </style>
 </defs>
 <g id="Layer_x0020_1">
  <metadata id="CorelCorpID_0Corel-Layer"/>
  <g id="_681018208">
   <rect class="fil0" width="643" height="643" rx="132" ry="132"/>
   <g>
    <path class="fil1" d="M186 183l0 -1 3 -4c-1,1 -2,3 -3,5zm161 460l-215 0c-72,0 -132,-59 -132,-132l0 -85 138 -257c33,-68 103,-116 184,-116 113,0 204,92 204,205 0,36 -9,69 -25,99l-154 286zm121 -332l-3 7c1,-2 2,-4 3,-7zm-4 10l-2 4c1,-2 2,-4 3,-7l-1 3zm8 -24l-1 3 -1 4c1,-3 2,-5 2,-7zm2 -9l0 1c0,-3 1,-5 1,-8l-1 7zm0 1l-1 4 -1 3c1,-2 1,-4 2,-7zm3 -23l-1 7c1,-2 1,-5 1,-7zm0 -16l0 8c0,-3 0,-6 0,-8zm-2 -16l1 8c0,-3 0,-5 -1,-8zm1 8l1 8c0,-3 0,-6 -1,-8zm-4 -23l2 7c-1,-2 -1,-5 -2,-7zm2 7l1 8c0,-3 -1,-5 -1,-8zm-6 -22l2 8c-1,-3 -1,-5 -2,-8zm2 8l2 7c0,-3 -1,-5 -2,-7zm-12 -28l4 6c-1,-2 -2,-4 -4,-6zm4 6l3 7c-1,-2 -2,-4 -3,-7zm3 7l3 7c-1,-2 -2,-4 -3,-7zm-19 -32l5 6c-2,-2 -3,-4 -5,-6zm5 6l4 6c-2,-2 -3,-4 -4,-6zm4 6l3 7c-1,-3 -2,-5 -3,-7zm-23 -29l5 5c-2,-2 -4,-3 -5,-5zm5 5l5 6c-2,-2 -4,-4 -5,-6zm5 6l4 6c-1,-2 -3,-4 -4,-6zm-27 -26l6 5c-2,-2 -4,-3 -6,-5zm6 5l5 5c-2,-2 -4,-4 -5,-5zm5 5l6 5c-2,-2 -4,-4 -6,-5zm-30 -22l6 4c-2,-1 -4,-3 -6,-4zm6 4l7 4c-2,-1 -5,-3 -7,-4zm7 4l6 4c-2,-1 -4,-3 -6,-4zm-34 -17l7 3c-2,-1 -4,-2 -7,-3zm7 3l7 3c-2,-1 -4,-2 -7,-3zm7 3l7 3c-2,-1 -5,-2 -7,-3zm-28 -11l7 2c-3,0 -5,-1 -7,-2zm7 2l7 3c-2,-1 -5,-2 -7,-3zm-23 -5l8 2c-2,-1 -5,-1 -8,-2zm8 2l8 1c-3,0 -5,-1 -8,-1zm-23 -3l8 0c-3,0 -6,0 -8,0zm8 0l7 1c-2,0 -5,-1 -7,-1zm-24 0l8 -1c-3,0 -6,0 -8,1zm8 -1l8 1c-3,-1 -6,-1 -8,-1zm-19 2l3 -1c-3,0 -5,1 -8,1l5 0zm3 -1l5 0 3 0c-3,0 -5,0 -8,0zm-12 2l4 -1c-3,1 -5,1 -7,1l3 0zm-46 16l6 -3c-2,1 -4,2 -6,3zm7 -3l3 -2 3 -1c-2,1 -4,2 -6,3zm7 -4l6 -2 0 0c-2,1 -4,2 -6,2zm-33 19l5 -4c-1,1 -3,3 -5,4zm13 -8l5 -4c-2,1 -4,2 -5,4zm-30 22l5 -4 0 0c-2,1 -3,3 -5,4zm11 -10l3 -2 2 -1c-1,1 -3,2 -5,3zm-16 16l3 -3 1 -2c-1,2 -2,3 -4,5zm-18 23l2 -3 2 -2c-2,2 -3,4 -4,5zm8 -11l0 0c-1,2 -2,3 -4,5l4 -5zm1 -1l4 -5c-2,2 -3,3 -4,5zm4 -6l4 -4c-1,1 -2,3 -4,4zm16 -16l3 -3 1 -1 0 0c-1,2 -3,3 -4,4zm17 -13l6 -4c-2,1 -4,2 -6,4zm12 -8l0 0 0 0zm1 0l6 -3 -6 3zm0 0l0 0 0 0zm21 -9l6 -2 0 0c-2,0 -4,1 -6,2l0 0zm7 -3l1 0 -1 0zm6 -2c-2,1 -4,2 -6,2l6 -2zm1 0l7 -1c-2,0 -5,1 -7,1zm194 151l0 8c0,-3 0,-6 0,-8zm-1 16l-1 6 0 1 0 0c1,-2 1,-5 1,-7zm-6 30l-2 7 2 -7zm-2 7c1,-2 1,-5 2,-7l0 0 -2 7zm-6 14l-4 7c2,-2 3,-5 4,-7z"/>
   </g>
   <path class="fil2" d="M322 53c113,0 204,92 204,205 0,104 -78,191 -180,203l0 47c0,13 -11,24 -24,24 -14,0 -25,-11 -25,-24l0 -47 0 -32 0 -18c8,1 16,2 25,2 86,0 155,-69 155,-155 0,-86 -69,-156 -155,-156 -86,0 -156,70 -156,156l0 0c0,13 -11,24 -24,24 -14,0 -25,-11 -25,-24l0 0c0,-113 92,-205 205,-205zm113 203c0,-25 -9,-49 -24,-68 -5,0 -10,-2 -14,-6 -4,-4 -6,-9 -6,-14 -19,-14 -42,-23 -68,-23 31,0 55,25 55,56l0 0 0 0c31,0 56,25 57,55zm-11 -101c7,7 7,19 0,26 -7,7 -18,7 -25,0 -7,-7 -7,-19 0,-26 7,-7 18,-7 25,0zm-101 216c26,0 49,-9 68,-24 0,-5 2,-10 6,-14 4,-4 9,-6 14,-6 15,-18 24,-42 24,-68 -1,31 -26,55 -57,55l0 0 0 0c0,31 -24,56 -55,57zm101 -11c-7,7 -18,7 -25,0 -7,-7 -7,-18 0,-25 7,-7 18,-7 25,0 7,7 7,18 0,25zm-215 -101c0,26 9,49 24,68 4,0 9,2 13,6 4,4 6,9 6,14 19,15 43,24 68,24 -30,-1 -55,-26 -55,-57l0 0 0 0c-31,0 -56,-24 -56,-55zm10 101c-7,-7 -7,-18 0,-25 7,-7 19,-7 26,0 7,7 7,18 0,25 -7,7 -19,7 -26,0zm101 -215c-25,0 -49,9 -68,24 0,5 -2,9 -6,13 -4,4 -9,6 -13,6 -15,19 -24,43 -24,68 0,-30 25,-55 56,-55l0 0 0 0c0,-31 25,-56 55,-56zm-101 10c7,-7 19,-7 26,0 7,7 7,19 0,26 -7,7 -19,7 -26,0 -7,-7 -7,-19 0,-26zm103 386c13,0 24,11 24,25 0,13 -11,24 -24,24 -14,0 -25,-11 -25,-24 0,-14 11,-25 25,-25z"/>
  </g>
 </g>
</svg>
