<?xml version="1.0" encoding="UTF-8"?>
<!DOCTYPE svg PUBLIC "-//W3C//DTD SVG 1.1//EN" "http://www.w3.org/Graphics/SVG/1.1/DTD/svg11.dtd">
<!-- Creator: CorelDRAW X7 -->
<svg xmlns="http://www.w3.org/2000/svg" xml:space="preserve" width="21.6746mm" height="21.6746mm" version="1.1" style="shape-rendering:geometricPrecision; text-rendering:geometricPrecision; image-rendering:optimizeQuality; fill-rule:evenodd; clip-rule:evenodd"
viewBox="0 0 2167 2167"
 xmlns:xlink="http://www.w3.org/1999/xlink">
 <defs>
  <style type="text/css">
   <![CDATA[
    .fil2 {fill:#FEFEFE}
    .fil1 {fill:#0DA396}
    .fil0 {fill:#29BAAE}
   ]]>
  </style>
 </defs>
 <g id="Layer_x0020_1">
  <metadata id="CorelCorpID_0Corel-Layer"/>
  <g id="_920474320">
   <rect class="fil0" width="2167" height="2167" rx="446" ry="446"/>
   <g>
    <path class="fil1" d="M625 616l1 -2 9 -16c-3,6 -7,12 -10,18zm544 1551l-723 0c-245,0 -446,-200 -446,-446l0 -286 463 -865c111,-231 347,-390 621,-390 380,0 688,308 688,688 0,121 -31,235 -86,334l-517 965zm406 -1118l-9 22c3,-7 6,-15 9,-22zm-13 32l-6 13c3,-7 7,-14 10,-21l-4 8zm28 -81l-3 11 -3 12c2,-8 4,-15 6,-23zm7 -30l0 3c1,-8 3,-16 4,-25l-4 22zm-1 4l-2 12 -3 12c2,-8 4,-16 5,-24zm10 -78l-2 25c1,-8 2,-17 2,-25zm0 -55l1 27c0,-9 0,-18 -1,-27zm-5 -53l3 27c-1,-9 -2,-18 -3,-27zm3 27l2 26c0,-9 -1,-18 -2,-26zm-13 -78l5 26c-1,-9 -3,-17 -5,-26zm5 26l5 25c-1,-8 -3,-17 -5,-25zm-21 -75l9 25c-3,-9 -6,-17 -9,-25zm9 25l7 24c-3,-8 -5,-16 -7,-24zm-40 -94l11 22c-3,-7 -7,-15 -11,-22zm11 22l11 23c-3,-7 -7,-15 -11,-23zm11 23l9 24c-3,-8 -6,-16 -9,-24zm-63 -109l15 21c-5,-7 -10,-14 -15,-21zm15 21l13 21c-4,-7 -9,-14 -13,-21zm13 21l13 22c-4,-8 -8,-15 -13,-22zm-77 -99l17 18c-5,-6 -11,-12 -17,-18zm17 18l17 19c-6,-6 -11,-13 -17,-19zm17 19l15 20c-5,-7 -10,-13 -15,-20zm-91 -86l20 15c-7,-5 -13,-10 -20,-15zm20 15l19 17c-7,-6 -13,-11 -19,-17zm19 17l18 17c-6,-6 -12,-12 -18,-17zm-103 -73l22 13c-7,-5 -14,-9 -22,-13zm22 13l21 13c-7,-5 -14,-9 -21,-13zm21 13l21 15c-7,-5 -14,-10 -21,-15zm-112 -57l23 9c-7,-3 -15,-7 -23,-9zm23 9l24 10c-8,-3 -16,-7 -24,-10zm24 10l22 12c-7,-4 -15,-8 -22,-12zm-96 -35l24 7c-8,-2 -16,-5 -24,-7zm24 7l25 9c-8,-3 -16,-6 -25,-9zm-76 -17l26 4c-8,-1 -17,-3 -26,-4zm26 4l26 6c-9,-2 -17,-4 -26,-6zm-78 -10l26 2c-9,0 -17,-1 -26,-2zm26 2l26 4c-8,-1 -17,-3 -26,-4zm-80 -2l27 0c-9,0 -18,0 -27,0zm27 0l27 0c-9,0 -18,0 -27,0zm-64 4l9 -1c-8,0 -16,2 -24,3l15 -2zm11 -2l16 -1 10 -1c-9,1 -18,2 -26,2zm-41 6l13 -2c-8,1 -16,3 -24,4l11 -2zm-154 54l19 -10c-6,3 -13,7 -19,10zm22 -11l12 -5 8 -4c-6,3 -13,6 -20,9zm23 -11l20 -8 1 0c-7,3 -14,6 -21,8zm-109 63l17 -13c-5,4 -11,8 -17,13zm42 -28l19 -11c-7,3 -13,7 -19,11zm-98 76l14 -14 1 0c-6,5 -11,9 -15,14zm37 -33l8 -7 8 -6c-5,4 -11,8 -16,13zm-55 51l8 -8 6 -7c-4,5 -9,10 -14,15zm-60 80l6 -10 5 -7c-4,6 -8,11 -11,17zm25 -38l0 0c-4,6 -8,11 -11,17l11 -17zm3 -3l13 -16c-4,5 -9,10 -13,16zm16 -20l13 -15c-4,5 -9,10 -13,15zm52 -54l12 -10 3 -3 0 0c-5,4 -10,9 -15,13zm59 -46l18 -11c-6,3 -12,7 -18,11zm40 -24l0 0 0 0zm3 -2l19 -10 -19 10zm0 0l0 0 0 0zm69 -31l22 -7 0 0c-8,2 -15,5 -22,7l0 0zm24 -8l3 -1 -3 1zm22 -6c-7,2 -15,4 -22,6l22 -6zm3 -1l23 -5c-8,1 -16,3 -23,5zm653 507l-1 27c1,-9 1,-18 1,-27zm-3 54l-3 23 0 3 0 0c1,-9 2,-17 3,-26zm-21 102l-8 24 8 -24zm-7 24c2,-8 5,-16 7,-24l0 0 -7 24zm-21 48l-11 21c4,-7 8,-14 11,-21z"/>
   </g>
   <path class="fil2" d="M1084 180c380,0 688,308 688,688 0,352 -264,643 -606,684l0 158c0,46 -37,83 -82,83 -46,0 -83,-37 -83,-83l0 -158 0 -108 0 -59c27,4 55,7 83,7 289,0 523,-235 523,-524 0,-289 -234,-523 -523,-523 -289,0 -524,234 -524,523l0 0c0,46 -37,83 -82,83 -46,0 -83,-37 -83,-83l0 0c0,-380 309,-688 689,-688zm381 683c-1,-86 -31,-166 -81,-229 -17,-1 -33,-7 -46,-20 -13,-13 -19,-30 -20,-46 -63,-50 -143,-80 -229,-81 103,3 185,87 185,190l0 1 0 0c104,0 188,82 191,185zm-36 -340c23,24 23,62 0,85 -24,24 -62,24 -86,0 -23,-23 -23,-61 0,-85 24,-23 62,-23 86,0zm-340 726c86,-1 166,-31 229,-80 1,-17 7,-34 20,-46 13,-13 29,-20 46,-20 50,-64 80,-143 81,-230 -3,103 -87,186 -191,186l0 0 0 0c0,103 -82,188 -185,190zm340 -36c-24,24 -62,24 -86,0 -23,-23 -23,-62 0,-85 24,-24 62,-24 86,0 23,23 23,62 0,85zm-726 -340c1,87 31,166 80,230 17,0 34,7 46,19 13,13 20,30 20,47 64,49 143,79 230,80 -103,-2 -186,-87 -186,-190l0 0 0 0c-103,0 -188,-83 -190,-186zm36 340c-24,-23 -24,-62 0,-85 23,-24 62,-24 85,0 24,23 24,62 0,85 -23,24 -62,24 -85,0zm340 -726c-87,1 -166,31 -230,81 0,17 -7,33 -20,46 -12,13 -29,19 -46,20 -49,63 -79,143 -80,229 2,-103 87,-185 190,-185l0 0 0 0c0,-104 83,-188 186,-191zm-340 36c23,-23 62,-23 85,0 24,24 24,62 0,86 -23,23 -62,23 -85,0 -24,-24 -24,-62 0,-86zm345 1300c45,0 82,37 82,82 0,46 -37,83 -82,83 -46,0 -83,-37 -83,-83 0,-45 37,-82 83,-82z"/>
  </g>
 </g>
</svg>
