<?xml version="1.0" encoding="UTF-8"?>
<!DOCTYPE svg PUBLIC "-//W3C//DTD SVG 1.1//EN" "http://www.w3.org/Graphics/SVG/1.1/DTD/svg11.dtd">
<!-- Creator: CorelDRAW X7 -->
<svg xmlns="http://www.w3.org/2000/svg" xml:space="preserve" width="86.6986mm" height="39.6238mm" version="1.1" style="shape-rendering:geometricPrecision; text-rendering:geometricPrecision; image-rendering:optimizeQuality; fill-rule:evenodd; clip-rule:evenodd"
viewBox="0 0 8670 3962"
 xmlns:xlink="http://www.w3.org/1999/xlink">
 <defs>
  <style type="text/css">
   <![CDATA[
    .fil9 {fill:#332C2B}
    .fil7 {fill:#F8F7F8}
    .fil12 {fill:#2618C4}
    .fil10 {fill:#408C86}
    .fil13 {fill:#61C21B}
    .fil11 {fill:#AD2DF7}
    .fil8 {fill:#CC1420}
    .fil4 {fill:#2618C4;fill-rule:nonzero}
    .fil1 {fill:#3531F7;fill-rule:nonzero}
    .fil3 {fill:#408C86;fill-rule:nonzero}
    .fil5 {fill:#61C21B;fill-rule:nonzero}
    .fil2 {fill:#AD2DF7;fill-rule:nonzero}
    .fil0 {fill:#CC1420;fill-rule:nonzero}
    .fil6 {fill:#FFD012;fill-rule:nonzero}
   ]]>
  </style>
 </defs>
 <g id="Layer_x0020_1">
  <metadata id="CorelCorpID_0Corel-Layer"/>
  <g id="_794143856">
   <path class="fil0" d="M5297 1690c0,30 -4,60 -14,90 -9,30 -23,59 -41,87 -18,29 -39,55 -64,80 -26,25 -54,47 -84,66 -32,19 -65,34 -101,46 -36,12 -73,19 -112,22 -7,1 -14,1 -21,0 -7,-2 -14,-3 -19,-5 -5,-1 -10,-4 -18,-7 -7,-3 -12,-5 -14,-7 -3,-3 -8,-8 -13,-14 -6,-7 -10,-12 -12,-16 -2,-3 -2,-7 -2,-13 0,-6 0,-13 0,-21 0,-7 0,-15 0,-23 0,-8 0,-12 2,-13 1,-1 3,-1 7,2 4,3 12,5 23,7 5,1 10,1 16,1 6,-1 12,-1 18,-3 18,-1 39,-6 63,-15 24,-9 48,-21 73,-35 26,-15 50,-32 75,-51 24,-20 46,-41 65,-63 19,-22 34,-46 46,-71 12,-25 17,-50 17,-75 0,-20 -4,-39 -11,-58 -8,-18 -20,-36 -37,-55 -10,-12 -30,-21 -61,-28 -30,-7 -66,-10 -108,-10 -36,0 -74,3 -115,9 -41,5 -82,15 -123,28 -34,11 -64,21 -88,30 -25,8 -46,16 -63,23 -18,7 -32,12 -43,17 -11,5 -21,9 -29,12 -9,3 -16,7 -23,9 -7,3 -14,6 -22,8 -7,2 -13,4 -17,4 -4,0 -7,0 -10,0 -4,-1 -7,-2 -9,-3 -2,-1 -4,-3 -6,-4 -3,-2 -5,-3 -7,-2 -2,0 -4,0 -6,1 -2,0 -3,0 -6,0 -1,-1 -4,-2 -6,-6 -3,-5 -5,-10 -6,-13 -2,-4 -2,-6 -3,-9 0,-2 0,-4 1,-6 0,-2 1,-5 2,-8 0,-3 0,-6 0,-9 -1,-2 -1,-5 -1,-7 0,-2 0,-4 1,-6 0,-3 3,-5 6,-9 7,-5 19,-14 36,-26 17,-12 37,-25 62,-39 25,-15 53,-29 85,-45 32,-14 67,-29 104,-41 38,-13 78,-23 121,-32 43,-9 88,-13 135,-15 46,-1 87,4 123,16 36,11 67,26 93,44 27,19 49,40 67,63 18,24 32,48 43,72 11,24 19,46 23,69 5,22 8,42 8,57zm-534 -104c-1,3 -2,12 -3,27 -1,15 -3,34 -5,58 -2,23 -3,50 -6,80 -2,30 -4,62 -6,95 -2,32 -4,65 -6,99 -1,34 -3,65 -3,96 -1,31 -2,63 -2,96 -1,33 -1,67 -1,101 0,38 1,77 2,115 2,38 6,74 10,110 2,12 2,21 -2,28 -4,6 -6,13 -6,18 0,1 1,3 3,4 1,1 2,3 1,4 -2,2 -5,3 -9,2 -3,0 -7,-1 -10,-4 -2,-2 -3,-3 -4,-6 -1,-2 -2,-4 -3,-6 -1,-1 -2,-2 -4,-2 -2,-1 -4,0 -7,3 -3,3 -6,6 -9,11 -3,4 -7,9 -11,14 -3,5 -7,10 -10,14 -4,4 -8,6 -11,7 -4,1 -7,2 -12,3 -4,1 -7,-1 -8,-5 -1,-2 -2,-3 -3,-4 -1,0 -2,-1 -4,-1 -1,-1 -3,-2 -4,-4 -1,-1 -2,-4 -3,-8 -3,-9 -5,-15 -9,-19 -3,-5 -5,-10 -5,-16 -1,-9 -3,-34 -7,-76 -4,-42 -6,-101 -6,-175 0,-29 0,-61 1,-96 1,-35 2,-72 5,-111 3,-35 6,-73 9,-113 4,-40 8,-80 12,-119 4,-39 7,-75 10,-109 3,-34 6,-62 7,-84 1,-3 2,-6 4,-7 2,-1 5,-1 9,-2 3,0 8,-1 14,-2 6,-1 12,-3 20,-6 6,-3 14,-6 22,-9 9,-3 17,-6 24,-7 8,-2 14,-3 19,-3 5,1 7,4 7,9z"/>
   <path class="fil1" d="M5561 1519c0,11 0,22 -1,35 -2,13 -4,25 -7,37 -2,12 -6,22 -12,32 -4,9 -10,16 -17,19 -17,9 -32,13 -45,13 -11,0 -19,-2 -27,-7 -8,-5 -15,-10 -22,-17 -11,-8 -19,-19 -26,-32 -7,-14 -11,-27 -11,-39 0,-10 2,-22 5,-37 4,-14 8,-28 13,-41 5,-14 11,-26 17,-37 6,-11 12,-19 17,-23 9,-8 17,-12 25,-12 7,-1 14,-1 18,1 12,2 22,6 31,10 8,4 16,9 22,18 6,8 10,18 14,31 2,13 5,30 6,49zm-64 348c2,3 4,12 6,26 1,15 2,34 2,57 0,15 -1,33 -1,51 -1,18 -1,37 -2,56 -1,19 -2,38 -3,58 -1,19 -2,38 -2,56 -2,29 -3,55 -3,80 0,25 0,49 0,71 0,31 0,58 0,83 1,25 1,46 1,62 0,19 0,33 -2,42 -1,10 -4,15 -8,16 -5,1 -8,3 -12,7 -3,3 -5,6 -8,9 -3,3 -6,6 -9,9 -4,2 -8,2 -12,2 -3,-1 -7,-3 -13,-8 -7,-3 -13,-9 -20,-15 -7,-6 -14,-12 -20,-20 -6,-8 -11,-16 -13,-24 -1,-5 -2,-13 -2,-25 -1,-13 -2,-28 -2,-46 -1,-17 -1,-37 -2,-58 0,-22 -1,-44 -1,-66 0,-22 -1,-44 -1,-65 0,-21 0,-40 0,-58 0,-26 2,-53 3,-81 2,-27 4,-53 7,-77 2,-24 4,-45 6,-62 3,-18 4,-31 5,-38 3,-13 5,-23 7,-29 3,-8 5,-13 8,-16 3,-3 6,-5 9,-5 3,-1 5,-2 9,-3 6,-1 13,-1 21,0 8,0 16,1 23,2 7,1 14,2 19,4 6,2 9,4 10,5z"/>
   <path class="fil2" d="M6566 1971c-4,3 -9,6 -13,10 -5,4 -8,8 -10,14 -1,6 -2,12 -4,19 -3,7 -7,12 -14,15 -4,1 -14,2 -28,3 -16,2 -33,3 -53,4 -19,2 -40,3 -62,4 -21,2 -40,2 -57,1 -14,0 -30,1 -49,2 -17,1 -37,2 -62,4 -25,2 -54,5 -87,9 -1,30 -3,60 -3,92 -1,32 -1,64 -1,95 -1,31 -1,61 -1,89 0,28 0,53 0,75l0 73c1,10 -1,21 -5,32 -3,12 -10,19 -19,22 -8,3 -15,6 -20,9 -6,3 -11,4 -18,5 -3,1 -7,1 -13,1 -5,0 -11,0 -16,-1 -5,-1 -11,-4 -15,-7 -4,-3 -7,-7 -9,-13 -2,-6 -4,-12 -6,-18 -3,-6 -5,-15 -7,-27 -2,-11 -4,-27 -6,-48 -2,-20 -4,-47 -5,-81 -1,-27 -1,-61 1,-102 2,-41 5,-85 8,-131 4,-47 7,-95 12,-143 4,-49 8,-94 13,-136 4,-42 7,-79 10,-111 4,-32 6,-54 7,-68 1,-10 2,-21 4,-32 1,-9 2,-19 3,-30 1,-11 2,-22 3,-32 -10,0 -19,0 -29,0 -9,0 -16,-1 -19,-2 -7,-1 -15,-3 -22,-6 -7,-3 -14,-6 -20,-10 -6,-4 -10,-8 -15,-12 -4,-5 -6,-9 -7,-13 0,-3 0,-6 1,-8 1,-3 3,-5 5,-7 2,-2 5,-3 10,-4 -3,-9 -4,-15 -2,-19 1,-2 2,-3 3,-4 4,-1 8,-2 13,-4 6,-2 10,-4 13,-7 1,-1 3,-3 7,-5 3,-2 7,-4 10,-6 4,-2 7,-4 11,-5 3,-2 6,-3 7,-3 1,-1 7,-2 16,-4 10,-2 22,-4 36,-6 14,-2 30,-5 47,-8 17,-2 33,-4 48,-6 11,-1 30,-2 56,-3 26,-1 56,-3 90,-4 34,-1 69,-2 106,-3 37,-1 72,-1 104,-1 28,0 52,0 73,1 21,1 36,2 44,4 12,3 22,5 30,8 7,3 13,6 17,8 4,3 7,6 8,8 2,2 2,4 2,4 0,1 -1,3 -1,4 -1,3 -2,6 -4,8 5,3 8,6 9,9 1,2 1,4 1,5 0,2 -1,5 -3,10 -1,5 -2,10 -3,15 -1,6 -2,11 -3,16 -1,6 -1,10 1,13 1,7 2,12 3,16 0,4 -1,7 -3,10 -2,1 -3,2 -5,2 -3,0 -7,0 -14,-2 0,2 -1,3 -6,4 -2,1 -4,1 -6,1 -2,0 -11,-1 -26,-2 -14,0 -33,-1 -55,-2 -22,-2 -47,-3 -75,-4 -27,0 -55,-1 -83,-1 -18,0 -36,1 -54,1 -18,1 -35,2 -51,3 -26,2 -52,3 -78,4 -27,2 -53,3 -77,4 -6,80 -10,150 -14,210 -3,59 -5,107 -6,144 28,-6 55,-10 79,-13 24,-3 46,-6 64,-8 21,-2 40,-3 57,-4 23,-1 45,-1 66,0 21,0 39,1 56,2 17,1 32,2 44,4 12,1 21,3 26,5 9,2 17,6 21,11 5,4 9,11 13,19 3,8 5,15 7,22 2,6 2,10 -1,13z"/>
   <path class="fil3" d="M6871 1496c0,7 -1,21 -2,43 -1,21 -2,46 -4,76 -1,30 -3,63 -5,99 -2,35 -4,71 -6,106 -2,36 -4,70 -5,103 -2,34 -3,63 -3,88 -1,15 -2,32 -2,50 -1,18 -1,37 -1,58 0,28 0,56 1,86 0,30 0,59 1,89 0,29 1,57 2,83 1,27 1,51 2,73 0,21 1,39 1,53 0,14 0,23 0,27 0,7 -1,13 -3,17 -3,3 -5,6 -9,7 -3,2 -7,2 -10,1 -4,-1 -7,-2 -10,-3 -3,-2 -5,-4 -7,-6 -2,-2 -3,-4 -4,-5 -1,0 -2,-1 -3,0 -1,0 -2,2 -2,6 -2,13 -5,24 -9,30 -4,7 -9,12 -14,14 -5,2 -10,3 -14,2 -4,-1 -6,-3 -8,-6 -1,-2 -2,-4 -5,-4 -2,-1 -4,-1 -7,-2 -2,0 -5,-1 -7,-2 -3,-1 -4,-4 -4,-8 -5,-18 -7,-40 -8,-67 -1,-28 -2,-58 -2,-93 0,-29 0,-61 1,-95 0,-35 1,-70 1,-106 0,-21 0,-41 0,-62 0,-20 -1,-41 -2,-62l0 -50c0,-42 1,-84 3,-126 2,-42 5,-83 8,-122 3,-39 7,-76 10,-110 4,-34 7,-65 10,-91 2,-27 4,-48 6,-65 1,-16 2,-27 1,-31 0,-3 0,-6 1,-8 2,-1 4,-2 6,-2 2,-1 5,-1 7,-1 3,0 5,-1 7,-2 4,-2 7,-3 9,-2 3,1 5,2 6,3 2,2 3,4 4,5 2,2 4,3 6,3 3,0 6,-1 8,-3 1,-1 3,-2 4,-3 2,-2 3,-3 4,-4 2,-1 3,-1 5,-1 5,1 9,2 12,2 4,1 6,0 6,-2 1,-4 3,-6 5,-5 2,0 4,1 8,4 3,2 5,5 7,8 2,3 4,7 4,13z"/>
   <path class="fil4" d="M7527 2207c0,55 -8,104 -24,147 -16,44 -37,81 -65,112 -27,31 -58,54 -94,71 -36,16 -74,25 -114,25 -17,0 -35,-2 -55,-6 -19,-4 -39,-10 -59,-19 -20,-9 -39,-21 -57,-35 -19,-15 -36,-33 -50,-54 -15,-21 -26,-46 -35,-75 -9,-29 -13,-61 -12,-99 0,-43 5,-81 15,-116 11,-35 24,-67 41,-95 16,-27 34,-52 55,-72 21,-20 42,-37 63,-51 20,-14 40,-24 60,-30 19,-7 35,-11 50,-12 7,-1 10,0 9,2 -1,2 -3,5 -6,7 -3,3 -6,5 -8,8 -2,3 -1,4 3,5 3,1 7,2 9,3 2,1 5,2 7,4l7 -7c3,-3 7,-4 10,-4 3,0 6,0 9,1 3,1 5,1 6,1 2,0 3,-1 3,-5 1,-5 3,-9 6,-9 3,-1 10,-2 20,-2 6,0 16,2 29,6 12,3 26,10 42,19 15,8 30,20 46,35 16,15 31,34 44,56 13,23 24,50 32,81 9,31 13,67 13,108zm-281 -228c-19,11 -37,26 -54,44 -18,19 -34,41 -48,65 -14,24 -26,52 -35,82 -9,30 -13,61 -13,95 0,36 3,68 10,97 6,29 16,54 28,75 13,20 28,36 46,47 17,11 38,17 61,17 20,0 40,-6 60,-17 20,-12 38,-29 54,-52 15,-23 28,-51 37,-85 10,-33 15,-72 15,-117 0,-45 -6,-83 -18,-114 -12,-31 -25,-56 -40,-74 -15,-19 -29,-33 -43,-41 -13,-8 -22,-12 -25,-12 -7,0 -13,0 -17,0 -3,0 -10,-3 -18,-10z"/>
   <path class="fil5" d="M8180 2207c0,55 -8,104 -24,147 -16,44 -38,81 -65,112 -27,31 -58,54 -94,71 -36,16 -74,25 -114,25 -17,0 -35,-2 -55,-6 -19,-4 -39,-10 -59,-19 -20,-9 -39,-21 -57,-35 -19,-15 -36,-33 -50,-54 -15,-21 -27,-46 -35,-75 -9,-29 -13,-61 -12,-99 0,-43 5,-81 15,-116 11,-35 24,-67 41,-95 16,-27 34,-52 55,-72 21,-20 42,-37 63,-51 20,-14 40,-24 59,-30 20,-7 36,-11 50,-12 8,-1 11,0 10,2 -1,2 -3,5 -6,7 -3,3 -6,5 -8,8 -2,3 -1,4 3,5 3,1 7,2 9,3 2,1 5,2 7,4l7 -7c3,-3 7,-4 10,-4 3,0 6,0 9,1 3,1 5,1 6,1 2,0 3,-1 3,-5 1,-5 3,-9 6,-9 3,-1 10,-2 20,-2 6,0 16,2 28,6 13,3 27,10 43,19 15,8 30,20 46,35 16,15 31,34 44,56 13,23 24,50 32,81 9,31 13,67 13,108zm-282 -228c-18,11 -36,26 -53,44 -18,19 -34,41 -48,65 -14,24 -26,52 -35,82 -9,30 -13,61 -13,95 0,36 3,68 10,97 6,29 16,54 28,75 13,20 28,36 46,47 17,11 38,17 61,17 20,0 40,-6 60,-17 20,-12 38,-29 54,-52 15,-23 28,-51 37,-85 10,-33 15,-72 15,-117 0,-45 -6,-83 -18,-114 -12,-31 -25,-56 -40,-74 -15,-19 -29,-33 -43,-41 -13,-8 -22,-12 -25,-12 -7,0 -13,0 -17,0 -3,0 -10,-3 -19,-10z"/>
   <path class="fil6" d="M8670 1976c-1,15 -2,30 -4,45 -3,14 -6,28 -10,42 -4,13 -9,25 -15,35 -6,11 -13,19 -20,25 -7,5 -12,8 -15,8 -4,0 -7,-1 -9,-3 -2,-2 -4,-5 -6,-7 -2,-3 -4,-4 -6,-5 -2,-1 -5,-1 -8,0 -4,1 -7,1 -10,1 -4,-1 -7,-3 -10,-6 -3,-3 -4,-10 -6,-18 -1,-10 0,-23 2,-39 1,-16 2,-31 2,-46 0,-14 -1,-25 -4,-34 -3,-9 -8,-14 -15,-14 -4,0 -10,3 -19,8 -9,6 -19,17 -30,35 -11,18 -22,43 -33,77 -11,33 -20,78 -27,133 0,72 1,130 2,173 1,44 2,78 2,102 0,21 -1,36 -2,45 -1,9 -4,14 -8,17 -2,2 -7,4 -15,6 -7,2 -15,4 -24,7 -9,1 -17,3 -25,5 -7,1 -12,2 -14,1 -2,0 -5,-2 -9,-5 -4,-2 -8,-6 -13,-10 -4,-4 -8,-8 -12,-13 -4,-4 -6,-8 -6,-11 -1,-5 -2,-17 -1,-36 0,-18 0,-40 0,-66 1,-26 1,-55 2,-86 0,-30 0,-61 0,-92 0,-20 1,-42 2,-66 2,-24 3,-49 5,-74 2,-24 4,-49 6,-73 2,-24 4,-45 6,-64 2,-19 3,-35 4,-47 2,-13 3,-21 3,-24 1,-4 3,-5 6,-4 3,1 7,3 11,5 4,3 7,5 10,7 3,2 6,2 7,0 1,-4 4,-5 11,-2 7,4 13,7 19,12 2,2 5,5 7,6 3,2 6,4 8,7 3,3 5,7 7,11 2,5 3,11 3,19 0,8 1,18 1,33 1,14 3,32 4,51 6,-18 13,-38 21,-59 8,-21 18,-40 29,-57 12,-17 25,-32 41,-43 15,-12 34,-17 56,-17 12,0 24,2 36,6 12,5 22,12 32,21 10,9 17,20 23,33 6,13 8,28 8,45z"/>
   <rect class="fil7" y="1" width="3960" height="3960" rx="815" ry="815"/>
   <g>
    <path class="fil8" d="M1980 331c694,0 1257,562 1257,1257 0,643 -483,1173 -1107,1248l0 289c0,83 -67,150 -150,150 -83,0 -151,-67 -151,-150l0 -289 0 -196 0 -109c49,8 100,12 151,12 528,0 955,-428 955,-955 0,-528 -427,-956 -955,-956 -528,0 -956,428 -956,956l0 0c0,83 -67,150 -150,150 -84,0 -151,-67 -151,-150l0 0c0,-695 563,-1257 1257,-1257z"/>
    <circle class="fil9" cx="1980" cy="3481" r="151"/>
    <path class="fil10" d="M1971 892c-158,2 -303,57 -419,147 -1,31 -13,61 -36,85 -24,23 -54,35 -85,36 -90,116 -145,261 -147,419 5,-188 159,-339 348,-339l0 0 0 0c0,-189 151,-343 339,-348z"/>
    <circle class="fil9" transform="matrix(0.197765 -0.197761 0.197765 0.197761 1427.93 1035.93)" r="394"/>
    <path class="fil11" d="M1284 1597c2,158 57,303 147,419 31,0 61,13 85,36 23,23 35,54 36,84 116,91 261,145 419,147 -188,-4 -339,-158 -339,-347l0 -1 0 0c-189,0 -343,-150 -348,-338z"/>
    <circle class="fil9" transform="matrix(-0.197765 -0.197761 0.197765 -0.197761 1427.93 2139.48)" r="394"/>
    <path class="fil12" d="M1989 2284c158,-2 303,-57 419,-148 1,-30 13,-61 36,-84 23,-23 54,-35 84,-36 91,-116 146,-261 148,-419 -5,188 -159,339 -348,339l0 0 0 0c0,189 -151,343 -339,348z"/>
    <circle class="fil9" transform="matrix(-0.197765 0.197761 -0.197765 -0.197761 2531.75 2139.72)" r="394"/>
    <path class="fil13" d="M2676 1578c-2,-158 -57,-303 -147,-419 -31,0 -61,-12 -85,-36 -23,-23 -35,-54 -36,-84 -116,-91 -261,-145 -419,-147 188,5 339,158 339,347l0 1 0 0c189,0 343,151 348,338z"/>
    <circle class="fil9" transform="matrix(0.197765 0.197761 -0.197765 0.197761 2531.85 1035.53)" r="394"/>
   </g>
  </g>
 </g>
</svg>
