<?xml version="1.0" encoding="UTF-8"?>
<!DOCTYPE svg PUBLIC "-//W3C//DTD SVG 1.1//EN" "http://www.w3.org/Graphics/SVG/1.1/DTD/svg11.dtd">
<!-- Creator: CorelDRAW X7 -->
<svg xmlns="http://www.w3.org/2000/svg" xml:space="preserve" width="5.0798mm" height="5.0798mm" version="1.1" style="shape-rendering:geometricPrecision; text-rendering:geometricPrecision; image-rendering:optimizeQuality; fill-rule:evenodd; clip-rule:evenodd"
viewBox="0 0 508 508"
 xmlns:xlink="http://www.w3.org/1999/xlink">
 <defs>
  <style type="text/css">
   <![CDATA[
    .fil2 {fill:#FEFEFE}
    .fil1 {fill:#0DA396}
    .fil0 {fill:#29BAAE}
   ]]>
  </style>
 </defs>
 <g id="Layer_x0020_1">
  <metadata id="CorelCorpID_0Corel-Layer"/>
  <g id="_681055648">
   <rect class="fil0" width="508" height="508" rx="105" ry="105"/>
   <g>
    <path class="fil1" d="M146 144l1 0 2 -4c-1,2 -2,3 -3,4zm128 364l-169 0c-58,0 -105,-47 -105,-105l0 -67 109 -202c26,-55 81,-92 145,-92 89,0 161,72 161,161 0,29 -7,56 -20,79l-121 226zm95 -262l-2 5c1,-2 2,-3 2,-5zm-3 7l-1 3c0,-1 1,-3 2,-5l-1 2zm7 -19l-1 3 -1 3c1,-2 1,-4 2,-6zm1 -7l0 1c1,-2 1,-4 1,-6l-1 5zm0 1l-1 3 0 3c0,-2 1,-4 1,-6zm2 -18l0 6c0,-2 0,-4 0,-6zm0 -13l1 6c0,-2 0,-4 -1,-6zm-1 -12l1 6c0,-2 0,-4 -1,-6zm1 6l0 6c0,-2 0,-4 0,-6zm-3 -18l1 6c0,-2 -1,-4 -1,-6zm1 6l1 6c0,-2 0,-4 -1,-6zm-5 -18l2 6c0,-2 -1,-4 -2,-6zm2 6l2 6c-1,-2 -1,-4 -2,-6zm-9 -22l3 5c-1,-1 -2,-3 -3,-5zm3 5l2 6c-1,-2 -2,-4 -2,-6zm2 6l2 5c0,-2 -1,-3 -2,-5zm-15 -26l4 5c-1,-2 -3,-3 -4,-5zm4 5l3 5c-1,-2 -2,-3 -3,-5zm3 5l3 5c-1,-2 -2,-3 -3,-5zm-18 -23l4 4c-2,-1 -3,-3 -4,-4zm4 4l4 4c-2,-1 -3,-3 -4,-4zm4 4l3 5c-1,-1 -2,-3 -3,-5zm-22 -20l5 4c-1,-1 -3,-3 -5,-4zm5 4l4 4c-1,-2 -2,-3 -4,-4zm4 4l5 4c-2,-2 -3,-3 -5,-4zm-24 -17l6 3c-2,-1 -4,-2 -6,-3zm6 3l5 3c-2,-1 -4,-2 -5,-3zm5 3l4 3c-1,-1 -3,-2 -4,-3zm-27 -14l6 2c-2,0 -4,-1 -6,-2zm6 2l5 3c-2,-1 -3,-2 -5,-3zm5 3l5 3c-1,-1 -3,-2 -5,-3zm-22 -8l5 1c-1,0 -3,-1 -5,-1zm5 1l6 2c-2,0 -4,-1 -6,-2zm-17 -4l6 1c-2,0 -4,0 -6,-1zm6 1l6 2c-2,-1 -4,-1 -6,-2zm-19 -2l7 0c-3,0 -5,0 -7,0zm7 0l6 1c-2,0 -4,0 -6,-1zm-19 0l6 0c-2,0 -4,0 -6,0zm6 0l6 0c-2,0 -4,0 -6,0zm-15 1l2 -1c-2,1 -4,1 -6,1l4 0zm3 -1l3 0 3 0c-2,0 -4,0 -6,0zm-10 2l3 -1c-2,1 -4,1 -6,1l3 0zm-36 12l4 -2c-1,1 -3,2 -4,2zm5 -2l3 -1 2 -1c-2,0 -3,1 -5,2zm6 -3l4 -2 0 0c-1,1 -3,2 -4,2zm-26 15l4 -3c-1,1 -3,2 -4,3zm10 -7l4 -2c-1,1 -3,1 -4,2zm-23 18l3 -3 0 0c-1,1 -2,2 -3,3zm8 -8l2 -1 2 -2c-1,1 -2,2 -4,3zm-12 13l2 -2 1 -2c-1,1 -2,2 -3,4zm-15 18l2 -2 1 -2c-1,2 -2,3 -3,4zm6 -9l0 0c0,2 -1,3 -2,4l2 -4zm1 0l3 -4c-1,1 -2,2 -3,4zm4 -5l3 -4c-1,2 -2,3 -3,4zm12 -13l3 -2 1 -1 0 0c-2,1 -3,2 -4,3zm14 -11l4 -2c-1,1 -3,2 -4,2zm9 -5l0 0 0 0zm1 -1l4 -2 -4 2zm0 0l0 0 0 0zm16 -7l5 -2 0 0c-2,1 -3,2 -5,2l0 0zm6 -2l0 0 0 0zm5 -1c-2,0 -4,1 -5,1l5 -1zm1 0l5 -2c-2,1 -4,1 -5,2zm153 118l0 7c0,-2 0,-4 0,-7zm-1 13l-1 5 0 1 0 0c1,-2 1,-4 1,-6zm-5 24l-2 6 2 -6zm-2 6c1,-2 2,-4 2,-6l0 0 -2 6zm-5 11l-2 5c1,-2 2,-3 2,-5z"/>
   </g>
   <path class="fil2" d="M254 42c89,0 161,72 161,161 0,83 -62,151 -142,161l0 37c0,10 -8,19 -19,19 -11,0 -19,-9 -19,-19l0 -37 0 -25 0 -14c6,1 12,1 19,1 68,0 123,-55 123,-123 0,-67 -55,-122 -123,-122 -68,0 -123,55 -123,122l0 0c0,11 -8,20 -19,20 -11,0 -19,-9 -19,-20l0 0c0,-89 72,-161 161,-161zm89 160c0,-20 -7,-39 -19,-53 -4,-1 -7,-2 -10,-5 -3,-3 -5,-7 -5,-11 -15,-12 -34,-19 -54,-19 24,1 44,20 44,45l0 0 0 0c24,0 44,19 44,43zm-8 -79c5,5 5,14 0,20 -6,5 -15,5 -20,0 -6,-6 -6,-15 0,-20 5,-6 14,-6 20,0zm-80 170c20,0 39,-7 54,-19 0,-4 2,-8 5,-11 3,-3 6,-4 10,-5 12,-14 19,-33 19,-53 0,24 -20,43 -44,43l0 0 0 0c0,24 -20,44 -44,45zm80 -9c-6,6 -15,6 -20,0 -6,-5 -6,-14 0,-20 5,-5 14,-5 20,0 5,6 5,15 0,20zm-170 -79c0,20 7,39 19,53 3,1 7,2 10,5 3,3 5,7 5,11 15,12 34,19 54,19 -24,-1 -44,-21 -44,-45l0 0 0 0c-24,0 -44,-19 -44,-43zm8 79c-5,-5 -5,-14 0,-20 6,-5 15,-5 20,0 6,6 6,15 0,20 -5,6 -14,6 -20,0zm80 -170c-20,0 -39,7 -54,19 0,4 -2,8 -5,11 -3,3 -7,4 -10,5 -12,14 -19,33 -19,53 0,-24 20,-43 44,-43l0 0 0 0c0,-24 20,-44 44,-45zm-80 9c6,-6 15,-6 20,0 6,5 6,14 0,20 -5,5 -14,5 -20,0 -5,-6 -5,-15 0,-20zm81 304c11,0 19,9 19,20 0,10 -8,19 -19,19 -11,0 -19,-9 -19,-19 0,-11 8,-20 19,-20z"/>
  </g>
 </g>
</svg>
